<svg width="64" height="64" viewBox="0 0 64 64" fill="none" xmlns="http://www.w3.org/2000/svg">
<rect width="64" height="64" fill="#EFEFEF"/>
<path d="M25.5152 33.0562C24.8365 33.7349 24.007 34.112 22.9512 34.112C21.9709 34.112 21.066 33.7349 20.3873 33.0562C19.7086 32.3775 19.3315 31.548 19.3315 30.4923C19.3315 29.5119 19.7086 28.607 20.3873 27.9283C21.066 27.2496 21.9709 26.8726 22.9512 26.8726C23.9316 26.8726 24.8365 27.2496 25.5152 27.9283" stroke="#007DC5" stroke-width="1.53563" stroke-miterlimit="10"/>
<path d="M22.95 26.9479C22.6484 26.4954 22.4221 25.8921 22.4221 25.2134C22.4221 23.5544 23.7795 22.197 25.4385 22.197C26.0418 22.197 26.5697 22.3478 27.0976 22.6495" stroke="#007DC5" stroke-width="1.53563" stroke-miterlimit="10"/>
<path d="M25.6663 22.197C25.6663 20.7642 26.8728 19.5576 28.3056 19.5576C29.7384 19.5576 30.945 20.7642 30.945 22.197V42.1054C30.945 43.2365 30.1155 44.1414 28.9843 44.1414C27.8532 44.1414 26.9482 43.2365 26.9482 42.1054C26.9482 41.7283 27.0236 41.3513 27.2499 41.0496" stroke="#007DC5" stroke-width="1.53563" stroke-miterlimit="10"/>
<path d="M24.6847 39.0892C24.2322 39.3154 23.7798 39.3908 23.2519 39.3908C21.442 39.3908 19.9338 37.8826 19.9338 36.0728C19.9338 35.0924 20.3863 34.1875 21.065 33.5842" stroke="#007DC5" stroke-width="1.53563" stroke-miterlimit="10"/>
<path d="M27.1744 42.0302C26.7219 42.3318 26.1186 42.4826 25.5154 42.4826C23.7055 42.4826 22.2727 41.0498 22.2727 39.24" stroke="#007DC5" stroke-width="1.53563" stroke-miterlimit="10"/>
<path d="M38.7874 33.0557C39.466 33.7344 40.2956 34.1115 41.3513 34.1115C42.3316 34.1115 43.2366 33.7344 43.9153 33.0557C44.594 32.377 44.971 31.5475 44.971 30.4918C44.971 29.5114 44.594 28.6065 43.9153 27.9278C43.2366 27.2491 42.3316 26.8721 41.3513 26.8721C40.371 26.8721 39.466 27.2491 38.7874 27.9278" stroke="#007DC5" stroke-width="1.53563" stroke-miterlimit="10"/>
<path d="M41.3502 26.9476C41.6519 26.4952 41.8781 25.8919 41.8781 25.2132C41.8781 23.5542 40.5207 22.1968 38.8617 22.1968C38.2584 22.1968 37.7305 22.3476 37.2026 22.6492" stroke="#007DC5" stroke-width="1.53563" stroke-miterlimit="10"/>
<path d="M38.6354 22.1967C38.6354 20.7639 37.4289 19.5574 35.9961 19.5574C34.5633 19.5574 33.3567 20.6885 33.3567 22.1967V42.1051C33.3567 43.2363 34.1862 44.1412 35.3174 44.1412C36.4485 44.1412 37.3534 43.2363 37.3534 42.1051C37.3534 41.7281 37.278 41.351 37.0518 41.0494" stroke="#007DC5" stroke-width="1.53563" stroke-miterlimit="10"/>
<path d="M39.6165 39.0887C40.0689 39.3149 40.5214 39.3904 41.0493 39.3904C42.8591 39.3904 44.3673 37.8821 44.3673 36.0723C44.3673 35.092 43.9149 34.187 43.2362 33.5837" stroke="#007DC5" stroke-width="1.53563" stroke-miterlimit="10"/>
<path d="M37.1279 42.0302C37.5804 42.3318 38.1837 42.4826 38.787 42.4826C40.5968 42.4826 42.0296 41.0498 42.0296 39.24" stroke="#007DC5" stroke-width="1.53563" stroke-miterlimit="10"/>
<path d="M27.8518 28.3053C27.8518 26.7217 29.1338 25.4397 30.7174 25.4397" stroke="#007DC5" stroke-width="1.53563" stroke-miterlimit="10"/>
<path d="M35.3928 32.0758C35.3928 30.4922 36.6748 29.2102 38.2584 29.2102" stroke="#007DC5" stroke-width="1.53563" stroke-miterlimit="10"/>
<path d="M36.7496 39.3151C36.7496 37.7314 35.4677 36.4495 33.884 36.4495" stroke="#007DC5" stroke-width="1.53563" stroke-miterlimit="10"/>
<path d="M25.7412 38.2594C25.7412 36.6003 27.0986 35.3184 28.6822 35.3184" stroke="#007DC5" stroke-width="1.53563" stroke-miterlimit="10"/>
<path d="M31.9991 48.3644C22.9498 48.3644 15.635 41.0496 15.635 32.0003C15.635 22.9511 22.9498 15.6362 31.9991 15.6362" stroke="#4D4D4D" stroke-width="1.53563" stroke-miterlimit="10"/>
<path d="M31.9993 15.6362C41.0485 15.6362 48.3633 22.9511 48.3633 32.0003C48.3633 41.0496 41.0485 48.3644 31.9993 48.3644" stroke="#4D4D4D" stroke-width="1.53563" stroke-miterlimit="10" stroke-dasharray="2.19 2.19"/>
</svg>
