<svg width="64" height="64" viewBox="0 0 64 64" fill="none" xmlns="http://www.w3.org/2000/svg">
<rect width="64" height="64" fill="#EFEFEF"/>
<path d="M36.0642 38.7747H33.4333C32.7158 38.7747 32.1577 39.3327 32.1577 40.0502C32.1577 40.7678 32.7158 41.3258 33.4333 41.3258H34.7089C35.4264 41.3258 35.9845 41.8839 35.9845 42.6014C35.9845 43.3189 35.4264 43.877 34.7089 43.877H31.9983" stroke="#4C5159" stroke-width="1.4" stroke-miterlimit="10"/>
<path d="M34.1506 37.4194V38.7747" stroke="#4C5159" stroke-width="1.4" stroke-miterlimit="10"/>
<path d="M34.1506 43.9568V45.2324" stroke="#4C5159" stroke-width="1.4" stroke-miterlimit="10"/>
<path d="M47.3844 49.1385H20.6768C19.7998 49.1385 19.0823 48.421 19.0823 47.544V35.0273C19.0823 34.1504 19.7998 33.4329 20.6768 33.4329H47.3844C48.2613 33.4329 48.9789 34.1504 48.9789 35.0273V47.6238C48.9789 48.5007 48.2613 49.1385 47.3844 49.1385Z" stroke="#4C5159" stroke-width="1.4" stroke-miterlimit="10"/>
<path d="M23.7854 33.4329C23.7854 35.984 21.7126 38.0569 19.1614 38.0569" stroke="#4C5159" stroke-width="1.4" stroke-miterlimit="10"/>
<path d="M44.2756 33.4329C44.2756 35.984 46.3485 38.0569 48.8996 38.0569" stroke="#4C5159" stroke-width="1.4" stroke-miterlimit="10"/>
<path d="M23.7854 49.1384C23.7854 46.5872 21.7126 44.5144 19.1614 44.5144" stroke="#4C5159" stroke-width="1.4" stroke-miterlimit="10"/>
<path d="M44.2756 49.1384C44.2756 46.5872 46.3485 44.5144 48.8996 44.5144" stroke="#4C5159" stroke-width="1.4" stroke-miterlimit="10"/>
<path d="M34.0709 46.7468C37.065 46.7468 39.4922 44.3196 39.4922 41.3255C39.4922 38.3315 37.065 35.9043 34.0709 35.9043C31.0768 35.9043 28.6497 38.3315 28.6497 41.3255C28.6497 44.3196 31.0768 46.7468 34.0709 46.7468Z" stroke="#4C5159" stroke-width="1.4" stroke-miterlimit="10"/>
<path d="M25.1409 41.3257H26.9745" stroke="#4C5159" stroke-width="1.4" stroke-miterlimit="10"/>
<path d="M40.926 41.3257H42.68" stroke="#4C5159" stroke-width="1.4" stroke-miterlimit="10"/>
<path d="M34.1504 32.1574V15.9734C34.1504 15.8937 34.0707 15.814 33.991 15.814H15.176C15.0963 15.814 15.0166 15.8937 15.0166 15.9734V48.9792C15.0166 49.1387 15.0963 49.2184 15.2558 49.2184H17.9664" stroke="#007DC5" stroke-width="1.4" stroke-miterlimit="10"/>
<path d="M29.5254 19.4014V22.7498" stroke="#007DC5" stroke-width="1.4" stroke-miterlimit="10"/>
<path d="M29.5254 24.4241V27.7725" stroke="#007DC5" stroke-width="1.4" stroke-miterlimit="10"/>
<path d="M29.5254 29.3669V31.5195" stroke="#007DC5" stroke-width="1.4" stroke-miterlimit="10"/>
<path d="M23.3875 26.8954H19.3216C19.2418 26.8954 19.1621 26.8157 19.1621 26.736V20.4378C19.1621 20.358 19.2418 20.2783 19.3216 20.2783H23.3875C23.4672 20.2783 23.5469 20.358 23.5469 20.4378V26.736C23.5469 26.8157 23.4672 26.8954 23.3875 26.8954Z" stroke="#007DC5" stroke-width="1.4" stroke-miterlimit="10"/>
<path d="M35.9033 20.7566C42.2813 20.7566 47.5431 25.9387 47.5431 32.3963" stroke="#4C5159" stroke-width="1.4" stroke-miterlimit="10" stroke-dasharray="1.99 1.99"/>
</svg>
