<svg width="64" height="64" viewBox="0 0 64 64" fill="none" xmlns="http://www.w3.org/2000/svg">
<rect width="64" height="64" fill="#EFEFEF"/>
<path d="M41.875 49H23.125C22.2962 49 21.5013 48.6726 20.9153 48.0899C20.3292 47.5072 20 46.7169 20 45.8929V23.1071C20 22.2831 20.3292 21.4928 20.9153 20.9101C21.5013 20.3274 22.2962 20 23.125 20H24.1667C24.4429 20 24.7079 20.1091 24.9032 20.3034C25.0986 20.4976 25.2083 20.761 25.2083 21.0357C25.2083 21.3104 25.0986 21.5738 24.9032 21.7681C24.7079 21.9623 24.4429 22.0714 24.1667 22.0714H23.125C22.8487 22.0714 22.5838 22.1805 22.3884 22.3748C22.1931 22.569 22.0833 22.8325 22.0833 23.1071V45.8929C22.0833 46.1675 22.1931 46.431 22.3884 46.6252C22.5838 46.8195 22.8487 46.9286 23.125 46.9286H41.875C42.1513 46.9286 42.4162 46.8195 42.6116 46.6252C42.8069 46.431 42.9167 46.1675 42.9167 45.8929V32.4286C42.9167 32.1539 43.0264 31.8904 43.2218 31.6962C43.4171 31.502 43.6821 31.3929 43.9583 31.3929C44.2346 31.3929 44.4996 31.502 44.6949 31.6962C44.8903 31.8904 45 32.1539 45 32.4286V45.8929C45 46.7169 44.6708 47.5072 44.0847 48.0899C43.4987 48.6726 42.7038 49 41.875 49Z" fill="#4D4D4D"/>
<path d="M44 29C43.7348 29 43.4804 28.8946 43.2929 28.7071C43.1054 28.5196 43 28.2652 43 28V23C43 22.7348 42.8946 22.4804 42.7071 22.2929C42.5196 22.1054 42.2652 22 42 22H37C36.7348 22 36.4804 21.8946 36.2929 21.7071C36.1054 21.5196 36 21.2652 36 21C36 20.7348 36.1054 20.4804 36.2929 20.2929C36.4804 20.1054 36.7348 20 37 20H42C42.7956 20 43.5587 20.3161 44.1213 20.8787C44.6839 21.4413 45 22.2044 45 23V28C45 28.2652 44.8946 28.5196 44.7071 28.7071C44.5196 28.8946 44.2652 29 44 29Z" fill="#4D4D4D"/>
<path d="M35.1875 23.5H28.8125C28.2489 23.5 27.7084 23.2761 27.3099 22.8776C26.9114 22.4791 26.6875 21.9386 26.6875 21.375V19.25C26.6875 18.6864 26.9114 18.1459 27.3099 17.7474C27.7084 17.3489 28.2489 17.125 28.8125 17.125H35.1875C35.7511 17.125 36.2916 17.3489 36.6901 17.7474C37.0886 18.1459 37.3125 18.6864 37.3125 19.25V21.375C37.3125 21.9386 37.0886 22.4791 36.6901 22.8776C36.2916 23.2761 35.7511 23.5 35.1875 23.5ZM28.8125 19.25V21.375H35.1875V19.25H28.8125Z" fill="#4D4D4D"/>
<path d="M32 19.25C31.7182 19.25 31.448 19.1381 31.2487 18.9388C31.0494 18.7395 30.9375 18.4693 30.9375 18.1875V16.0625C30.9375 15.7807 31.0494 15.5105 31.2487 15.3112C31.448 15.1119 31.7182 15 32 15C32.2818 15 32.552 15.1119 32.7513 15.3112C32.9506 15.5105 33.0625 15.7807 33.0625 16.0625V18.1875C33.0625 18.4693 32.9506 18.7395 32.7513 18.9388C32.552 19.1381 32.2818 19.25 32 19.25Z" fill="#4D4D4D"/>
<path d="M28.8125 33.0625H24.5625C24.2807 33.0625 24.0105 32.9506 23.8112 32.7513C23.6119 32.552 23.5 32.2818 23.5 32V27.75C23.5 27.4682 23.6119 27.198 23.8112 26.9987C24.0105 26.7994 24.2807 26.6875 24.5625 26.6875H28.8125C29.0943 26.6875 29.3645 26.7994 29.5638 26.9987C29.7631 27.198 29.875 27.4682 29.875 27.75V32C29.875 32.2818 29.7631 32.552 29.5638 32.7513C29.3645 32.9506 29.0943 33.0625 28.8125 33.0625ZM25.625 30.9375H27.75V28.8125H25.625V30.9375Z" fill="#007DC5"/>
<path d="M28.8125 42.625H24.5625C24.2807 42.625 24.0105 42.5131 23.8112 42.3138C23.6119 42.1145 23.5 41.8443 23.5 41.5625V37.3125C23.5 37.0307 23.6119 36.7605 23.8112 36.5612C24.0105 36.3619 24.2807 36.25 24.5625 36.25H28.8125C29.0943 36.25 29.3645 36.3619 29.5638 36.5612C29.7631 36.7605 29.875 37.0307 29.875 37.3125V41.5625C29.875 41.8443 29.7631 42.1145 29.5638 42.3138C29.3645 42.5131 29.0943 42.625 28.8125 42.625ZM25.625 40.5H27.75V38.375H25.625V40.5Z" fill="#007DC5"/>
<path d="M39.4375 30.9375H33.0625C32.7807 30.9375 32.5105 30.8256 32.3112 30.6263C32.1119 30.427 32 30.1568 32 29.875C32 29.5932 32.1119 29.323 32.3112 29.1237C32.5105 28.9244 32.7807 28.8125 33.0625 28.8125H39.4375C39.7193 28.8125 39.9895 28.9244 40.1888 29.1237C40.3881 29.323 40.5 29.5932 40.5 29.875C40.5 30.1568 40.3881 30.427 40.1888 30.6263C39.9895 30.8256 39.7193 30.9375 39.4375 30.9375Z" fill="#007DC5"/>
<path d="M39.4375 40.5H33.0625C32.7807 40.5 32.5105 40.3881 32.3112 40.1888C32.1119 39.9895 32 39.7193 32 39.4375C32 39.1557 32.1119 38.8855 32.3112 38.6862C32.5105 38.4869 32.7807 38.375 33.0625 38.375H39.4375C39.7193 38.375 39.9895 38.4869 40.1888 38.6862C40.3881 38.8855 40.5 39.1557 40.5 39.4375C40.5 39.7193 40.3881 39.9895 40.1888 40.1888C39.9895 40.3881 39.7193 40.5 39.4375 40.5Z" fill="#007DC5"/>
</svg>
