<svg width="64" height="64" viewBox="0 0 64 64" fill="none" xmlns="http://www.w3.org/2000/svg">
<rect width="64" height="64" fill="#F5F5F5"/>
<path d="M32.5276 29.8612L48.6109 21.9445C48.6943 21.8612 48.6943 21.6945 48.6109 21.6112L32.5276 13.7778C32.4443 13.7778 32.4443 13.7778 32.3609 13.7778L16.2776 21.6945C16.1943 21.7778 16.1943 21.9445 16.2776 22.0278L32.3609 29.9445C32.4443 29.8612 32.4443 29.8612 32.5276 29.8612Z" stroke="#007DC5" stroke-width="1.27273" stroke-miterlimit="10"/>
<path d="M38.2786 34.0279H42.2786V26.6946" stroke="#007DC5" stroke-width="1.27273" stroke-miterlimit="10"/>
<path d="M22.6116 26.6946V34.0279H27.1949" stroke="#007DC5" stroke-width="1.27273" stroke-miterlimit="10"/>
<path d="M46.0276 25.1946V36.9446C45.3609 38.0279 45.0276 39.1946 45.0276 40.4446V42.1112H48.0276V37.8612" stroke="#4D4D4D" stroke-width="1.27273" stroke-miterlimit="10"/>
<path d="M32.7789 46.6942C30.1122 46.6942 27.9456 44.5275 27.9456 41.8608V37.9442C27.9456 35.2775 30.1122 33.1108 32.7789 33.1108C35.4456 33.1108 37.6122 35.2775 37.6122 37.9442V41.8608C37.5289 44.5275 35.3622 46.6942 32.7789 46.6942Z" stroke="#4D4D4D" stroke-width="1.27273" stroke-miterlimit="10"/>
<path d="M28.2288 38.8611H37.5279" stroke="#4D4D4D" stroke-width="1.27273" stroke-miterlimit="10"/>
<path d="M32.7778 35.1111V37.1111" stroke="#4D4D4D" stroke-width="1.81818" stroke-miterlimit="10"/>
<path d="M42.2782 47.0276C39.7782 49.5276 36.2782 51.1109 32.4449 51.1109C28.6116 51.1109 25.1116 49.5276 22.6116 47.0276" stroke="#4D4D4D" stroke-width="1.27273" stroke-miterlimit="10" stroke-dasharray="1.82 1.82"/>
</svg>
