<svg width="64" height="64" viewBox="0 0 64 64" fill="none" xmlns="http://www.w3.org/2000/svg">
<rect width="64" height="64" fill="#F5F5F5"/>
<g clip-path="url(#clip0_1162_30556)">
<path fill-rule="evenodd" clip-rule="evenodd" d="M25.5837 32.9163H23.7503V34.7497H25.5837V32.9163ZM23.7503 31.083C22.7378 31.083 21.917 31.9038 21.917 32.9163V34.7497C21.917 35.7622 22.7378 36.583 23.7503 36.583H25.5837C26.5962 36.583 27.417 35.7622 27.417 34.7497V32.9163C27.417 31.9038 26.5962 31.083 25.5837 31.083H23.7503Z" fill="#007DC5"/>
<path fill-rule="evenodd" clip-rule="evenodd" d="M32.9167 32.9166H31.0833V34.7499H32.9167V32.9166ZM31.0833 31.0833C30.0708 31.0833 29.25 31.904 29.25 32.9166V34.7499C29.25 35.7625 30.0708 36.5833 31.0833 36.5833H32.9167C33.9292 36.5833 34.75 35.7625 34.75 34.7499V32.9166C34.75 31.904 33.9292 31.0833 32.9167 31.0833H31.0833Z" fill="#007DC5"/>
<path fill-rule="evenodd" clip-rule="evenodd" d="M40.2497 32.9163H38.4163V34.7497H40.2497V32.9163ZM38.4163 31.083C37.4038 31.083 36.583 31.9038 36.583 32.9163V34.7497C36.583 35.7622 37.4038 36.583 38.4163 36.583H40.2497C41.2622 36.583 42.083 35.7622 42.083 34.7497V32.9163C42.083 31.9038 41.2622 31.083 40.2497 31.083H38.4163Z" fill="#007DC5"/>
<path fill-rule="evenodd" clip-rule="evenodd" d="M25.5837 40.2503H23.7503V42.0837H25.5837V40.2503ZM23.7503 38.417C22.7378 38.417 21.917 39.2378 21.917 40.2503V42.0837C21.917 43.0962 22.7378 43.917 23.7503 43.917H25.5837C26.5962 43.917 27.417 43.0962 27.417 42.0837V40.2503C27.417 39.2378 26.5962 38.417 25.5837 38.417H23.7503Z" fill="#007DC5"/>
<path fill-rule="evenodd" clip-rule="evenodd" d="M32.9167 40.2501H31.0833V42.0834H32.9167V40.2501ZM31.0833 38.4167C30.0708 38.4167 29.25 39.2375 29.25 40.2501V42.0834C29.25 43.096 30.0708 43.9167 31.0833 43.9167H32.9167C33.9292 43.9167 34.75 43.096 34.75 42.0834V40.2501C34.75 39.2375 33.9292 38.4167 32.9167 38.4167H31.0833Z" fill="#007DC5"/>
<path fill-rule="evenodd" clip-rule="evenodd" d="M40.2497 40.2503H38.4163V42.0837H40.2497V40.2503ZM38.4163 38.417C37.4038 38.417 36.583 39.2378 36.583 40.2503V42.0837C36.583 43.0962 37.4038 43.917 38.4163 43.917H40.2497C41.2622 43.917 42.083 43.0962 42.083 42.0837V40.2503C42.083 39.2378 41.2622 38.417 40.2497 38.417H38.4163Z" fill="#007DC5"/>
<path fill-rule="evenodd" clip-rule="evenodd" d="M19.167 20.0833C18.6607 20.0833 18.2503 20.4937 18.2503 21V45.75C18.2503 46.2563 18.6607 46.6667 19.167 46.6667H44.8337C45.3386 46.6667 45.7503 46.2555 45.7503 45.748V21.002C45.7503 20.4945 45.3386 20.0833 44.8337 20.0833H42.0837V18.25H44.8337C46.3538 18.25 47.5837 19.4845 47.5837 21.002V45.748C47.5837 47.2655 46.3538 48.5 44.8337 48.5H19.167C17.6482 48.5 16.417 47.2688 16.417 45.75V21C16.417 19.4812 17.6482 18.25 19.167 18.25H23.7503V20.0833H19.167ZM38.417 20.0833H27.417V18.25H38.417V20.0833Z" fill="#4D4D4D"/>
<path fill-rule="evenodd" clip-rule="evenodd" d="M45.75 28.3333H18.25V26.5H45.75V28.3333Z" fill="#4D4D4D"/>
<path d="M23.75 16.4167C23.75 15.9104 24.1604 15.5 24.6667 15.5C25.1729 15.5 25.5833 15.9104 25.5833 16.4167V22.8333C25.5833 23.3396 25.1729 23.75 24.6667 23.75C24.1604 23.75 23.75 23.3396 23.75 22.8333V16.4167Z" fill="#4D4D4D"/>
<path d="M38.417 16.4167C38.417 15.9104 38.8274 15.5 39.3337 15.5C39.8399 15.5 40.2503 15.9104 40.2503 16.4167V22.8333C40.2503 23.3396 39.8399 23.75 39.3337 23.75C38.8274 23.75 38.417 23.3396 38.417 22.8333V16.4167Z" fill="#4D4D4D"/>
</g>
<defs>
<clipPath id="clip0_1162_30556">
<rect width="38" height="38" fill="white" transform="translate(13 13)"/>
</clipPath>
</defs>
</svg>
