<svg width="16" height="16" viewBox="0 0 16 16" fill="none" xmlns="http://www.w3.org/2000/svg">
<path d="M13.0002 5.16994C12.8128 4.98369 12.5594 4.87915 12.2952 4.87915C12.031 4.87915 11.7776 4.98369 11.5902 5.16994L8.00019 8.70994L4.46019 5.16994C4.27283 4.98369 4.01938 4.87915 3.75519 4.87915C3.49101 4.87915 3.23756 4.98369 3.05019 5.16994C2.95646 5.26291 2.88207 5.37351 2.8313 5.49537C2.78053 5.61723 2.75439 5.74793 2.75439 5.87994C2.75439 6.01195 2.78053 6.14266 2.8313 6.26452C2.88207 6.38638 2.95646 6.49698 3.05019 6.58994L7.29019 10.8299C7.38316 10.9237 7.49376 10.9981 7.61562 11.0488C7.73747 11.0996 7.86818 11.1257 8.00019 11.1257C8.1322 11.1257 8.26291 11.0996 8.38477 11.0488C8.50663 10.9981 8.61723 10.9237 8.71019 10.8299L13.0002 6.58994C13.0939 6.49698 13.1683 6.38638 13.2191 6.26452C13.2699 6.14266 13.296 6.01195 13.296 5.87994C13.296 5.74793 13.2699 5.61723 13.2191 5.49537C13.1683 5.37351 13.0939 5.26291 13.0002 5.16994Z" fill="#F5F5F5"/>
</svg>
