<svg width="16" height="16" viewBox="0 0 16 16" fill="none" xmlns="http://www.w3.org/2000/svg">
<path d="M11.4923 6.84772V5.23454C11.4923 3.34485 9.90921 1.77777 8.00023 1.77777C6.09122 1.77777 4.50815 3.34485 4.50815 5.23457V6.84774C3.71661 6.84774 3.11133 7.44691 3.11133 8.23046V10.535C3.11133 12.563 4.78752 14.2222 6.8362 14.2222H9.16424C11.2129 14.2222 12.8891 12.563 12.8891 10.535V8.23043C12.8891 7.49299 12.2838 6.84772 11.4923 6.84772ZM8.23302 10.4889V11.6872C8.23302 11.8255 8.1399 11.9177 8.00023 11.9177C7.86056 11.9177 7.76744 11.8255 7.76744 11.6872V10.4889C7.48807 10.3967 7.30183 10.1201 7.30183 9.84361C7.30183 9.47489 7.62777 9.15224 8.00025 9.15224C8.37274 9.15224 8.69868 9.47489 8.69868 9.84361C8.69863 10.1662 8.51239 10.3967 8.23302 10.4889ZM10.0955 6.84772H5.90498V5.23454C5.90498 4.08229 6.8362 3.16048 8.00021 3.16048C9.16421 3.16048 10.0954 4.08229 10.0954 5.23454V6.84772H10.0955Z" fill="white"/>
</svg>
