<svg width="44" height="44" viewBox="0 0 44 44" fill="none" xmlns="http://www.w3.org/2000/svg">
<path d="M13.6826 35.1151H3.26612C3.0994 35.1151 2.94041 35.0464 2.82612 34.9243C2.71268 34.8023 2.65424 34.639 2.66541 34.4723L3.1501 27.3945C3.16643 27.1599 3.31768 26.9553 3.53768 26.8728C3.75768 26.7895 4.00604 26.8428 4.17362 27.0086C5.32432 28.1507 6.85143 28.7789 8.47393 28.7789C10.0956 28.7789 11.6227 28.1507 12.7742 27.0095C13.0106 26.7757 13.3913 26.7774 13.625 27.0129C13.8588 27.2492 13.8571 27.6299 13.6216 27.8637C12.2431 29.2301 10.4153 29.9821 8.47479 29.9821C6.94854 29.9821 5.49276 29.5171 4.27073 28.6543L3.91065 33.912H13.0355L12.7674 30.2837C12.7424 29.952 12.9917 29.6641 13.3225 29.6392C13.6517 29.6151 13.9421 29.8635 13.9671 30.1943L14.2833 34.468C14.2953 34.6347 14.2378 34.7989 14.1243 34.9217C14.0092 35.0455 13.8502 35.1151 13.6826 35.1151Z" fill="#4D4D4D"/>
<path d="M8.47484 26.4273C6.40289 26.4273 4.7168 24.7413 4.7168 22.6693C4.7168 21.2316 5.51687 19.9416 6.80594 19.3023C7.32672 19.0436 7.88789 18.9121 8.47484 18.9121C10.5468 18.9121 12.2329 20.5982 12.2329 22.6702C12.2329 23.2562 12.1023 23.8183 11.8436 24.3391C11.2025 25.6273 9.91172 26.4273 8.47484 26.4273ZM8.47484 20.1152C8.07609 20.1152 7.69453 20.2046 7.34133 20.3799C6.46391 20.8148 5.91992 21.6922 5.91992 22.6693C5.91992 24.0778 7.06547 25.2242 8.47484 25.2242C9.45195 25.2242 10.3294 24.6802 10.7659 23.8037C10.9412 23.4505 11.0298 23.0689 11.0298 22.6693C11.0298 21.2608 9.88336 20.1152 8.47484 20.1152Z" fill="#4D4D4D"/>
<path d="M8.47453 29.9812C6.5332 29.9812 4.70445 29.2284 3.32688 27.862C1.93039 26.4792 1.16211 24.635 1.16211 22.6688C1.16211 18.6366 4.44234 15.3555 8.47453 15.3555C9.29953 15.3555 10.1108 15.4921 10.8851 15.7628C12.9708 16.4898 14.6509 18.1708 15.3805 20.2582C15.6503 21.0325 15.7878 21.8438 15.7878 22.6688C15.7878 24.635 15.0187 26.4801 13.6213 27.8628C12.2437 29.2292 10.4159 29.9812 8.47453 29.9812ZM8.47453 16.5586C5.10578 16.5586 2.36523 19.3 2.36523 22.6688C2.36523 24.311 3.00805 25.8519 4.17422 27.0069C5.32492 28.149 6.85203 28.778 8.47453 28.778C10.0962 28.778 11.6233 28.1498 12.7748 27.0086C13.9419 25.8527 14.5847 24.3119 14.5847 22.6688C14.5847 21.9787 14.4704 21.3006 14.2444 20.6544C13.6351 18.9107 12.2317 17.5065 10.4889 16.8989C9.84266 16.6729 9.16461 16.5586 8.47453 16.5586Z" fill="#4D4D4D"/>
<path d="M8.47484 26.4273C6.40289 26.4273 4.7168 24.7413 4.7168 22.6693C4.7168 21.2316 5.51687 19.9416 6.80594 19.3023C7.32672 19.0436 7.88789 18.9121 8.47484 18.9121C10.5468 18.9121 12.2329 20.5982 12.2329 22.6702C12.2329 23.2562 12.1023 23.8183 11.8436 24.3391C11.2025 25.6273 9.91172 26.4273 8.47484 26.4273ZM8.47484 20.1152C8.07609 20.1152 7.69453 20.2046 7.34133 20.3799C6.46391 20.8148 5.91992 21.6922 5.91992 22.6693C5.91992 24.0778 7.06547 25.2242 8.47484 25.2242C9.45195 25.2242 10.3294 24.6802 10.7659 23.8037C10.9412 23.4505 11.0298 23.0689 11.0298 22.6693C11.0298 21.2608 9.88336 20.1152 8.47484 20.1152Z" fill="#16ADE1"/>
<path d="M14.8125 21.0575C14.773 21.0575 14.7326 21.0532 14.6922 21.0454C14.4843 21.0033 14.3141 20.8546 14.2445 20.6544C13.6352 18.9107 12.2318 17.5065 10.489 16.8989C10.2888 16.8293 10.1401 16.6592 10.098 16.4512C10.0559 16.2432 10.1255 16.0284 10.2828 15.8857L16.7324 10.0196C16.9782 9.7962 17.3589 9.81425 17.5823 10.06C17.8057 10.3058 17.7877 10.6865 17.5419 10.91L11.7841 16.147C13.1591 16.8491 14.2943 17.9843 14.9973 19.3602L21.5672 12.1371C20.1046 11.5339 19.014 10.2448 18.6814 8.64722C18.6136 8.32152 18.8224 8.00355 19.1481 7.93566C19.4729 7.86777 19.7918 8.07659 19.8596 8.4023C20.1579 9.83659 21.3257 10.9778 22.7652 11.2425C22.98 11.2821 23.1562 11.435 23.2267 11.6421C23.2971 11.8492 23.249 12.0778 23.1021 12.2394L15.2594 20.8615C15.1417 20.9878 14.9801 21.0575 14.8125 21.0575Z" fill="#4D4D4D"/>
<path d="M22.1163 9.705C21.9763 9.705 21.8353 9.65602 21.7219 9.55719L21.6402 9.48672C21.5148 9.37758 21.44 9.22117 21.434 9.05531C21.428 8.88945 21.4907 8.72789 21.6076 8.61016C21.7202 8.49672 21.8748 8.43055 22.0356 8.42969C22.0364 8.42969 22.0364 8.42969 22.0373 8.42969C22.1963 8.42969 22.3509 8.4907 22.4644 8.60328C22.4781 8.61703 22.4919 8.62992 22.5056 8.64281L22.534 8.67031C22.7695 8.89633 22.7806 9.2693 22.5606 9.50992C22.4412 9.63969 22.2796 9.705 22.1163 9.705Z" fill="#4D4D4D"/>
<path d="M23.431 12.5062C23.1319 12.5062 22.8337 12.4787 22.5458 12.4254C20.6019 12.0679 19.0843 10.5846 18.6812 8.64758C18.6142 8.32273 18.5798 7.9893 18.5798 7.655C18.5798 4.98062 20.7558 2.80469 23.431 2.80469C23.7636 2.80469 24.0326 3.07367 24.0326 3.40625C24.0326 3.73883 23.7636 4.00781 23.431 4.00781C21.4192 4.00781 19.783 5.64406 19.783 7.655C19.783 7.9068 19.8087 8.15859 19.8594 8.40266C20.1576 9.83609 21.3255 10.9773 22.765 11.242C22.9816 11.2824 23.2058 11.303 23.431 11.303C23.8908 11.303 24.3376 11.2188 24.7605 11.053C25.6473 10.7058 26.3778 10.008 26.7645 9.13656C26.9734 8.6682 27.0791 8.16976 27.0791 7.65414C27.0791 6.81625 26.7877 5.99812 26.2592 5.35016C26.0495 5.0932 26.0873 4.71422 26.3451 4.50367C26.6021 4.29398 26.9811 4.3318 27.1916 4.58961C27.8955 5.45156 28.283 6.54039 28.283 7.65414C28.283 8.33992 28.1421 9.0025 27.8645 9.62555C27.3506 10.7831 26.3795 11.7112 25.2005 12.1727C24.6367 12.3945 24.0412 12.5062 23.431 12.5062Z" fill="#4D4D4D"/>
<path d="M25.3184 4.44922C24.9858 4.44922 24.7168 4.18023 24.7168 3.84766C24.7168 3.51508 24.9858 3.24609 25.3184 3.24609H25.3192C25.6518 3.24609 25.9208 3.51508 25.9208 3.84766C25.9208 4.18023 25.6509 4.44922 25.3184 4.44922Z" fill="#4D4D4D"/>
<path d="M23.4305 10.212C22.7963 10.212 22.187 9.97828 21.7161 9.55289L21.6388 9.48586C21.6035 9.45578 21.5726 9.42141 21.5459 9.38445C21.1111 8.91094 20.873 8.29992 20.873 7.65539C20.873 6.97305 21.1386 6.33109 21.6216 5.84812C21.6293 5.84039 21.637 5.83266 21.6456 5.82578C22.1269 5.35742 22.7594 5.09961 23.4305 5.09961C24.5623 5.09961 25.5455 5.82664 25.8763 6.90859C25.9502 7.14922 25.988 7.40102 25.988 7.65625C25.988 8.33859 25.7225 8.98055 25.2395 9.46438C24.754 9.94648 24.112 10.212 23.4305 10.212ZM22.4895 8.63164L22.5102 8.64969C22.5136 8.65227 22.5162 8.65484 22.5187 8.65742C22.7688 8.8843 23.0928 9.00891 23.4297 9.00891C23.7906 9.00891 24.1309 8.86797 24.3879 8.61188C24.6423 8.35664 24.7832 8.01633 24.7832 7.65453C24.7832 7.51875 24.7634 7.38641 24.7248 7.25922C24.5495 6.68602 24.0287 6.30102 23.4297 6.30102C23.0688 6.30102 22.7293 6.44195 22.4723 6.69805C22.4672 6.7032 22.4612 6.70836 22.456 6.71352C22.2102 6.96703 22.0762 7.30047 22.0762 7.65367C22.0762 8.01117 22.2145 8.34977 22.4663 8.605C22.4741 8.61445 22.4818 8.62305 22.4895 8.63164Z" fill="#4D4D4D"/>
<path d="M23.4305 10.2129C22.7938 10.2129 22.1836 9.97742 21.7109 9.54945C21.7066 9.54516 21.7023 9.54172 21.698 9.53742L21.6748 9.51508C21.6542 9.49531 21.6336 9.47555 21.613 9.45492C21.1343 8.96852 20.873 8.33086 20.873 7.65539C20.873 6.97305 21.1386 6.33109 21.6216 5.84813C21.6293 5.84039 21.637 5.83266 21.6456 5.82578C22.1269 5.35742 22.7594 5.09961 23.4305 5.09961C24.5623 5.09961 25.5455 5.82664 25.8763 6.90859C25.9502 7.14922 25.988 7.40102 25.988 7.65625C25.988 8.33859 25.7225 8.98055 25.2395 9.46437C24.754 9.94734 24.112 10.2129 23.4305 10.2129ZM22.5239 8.66258C22.7731 8.88602 23.0945 9.00977 23.4297 9.00977C23.7906 9.00977 24.1309 8.86883 24.3879 8.61273C24.6423 8.3575 24.7832 8.01719 24.7832 7.65539C24.7832 7.51961 24.7634 7.38727 24.7248 7.26008C24.5495 6.68688 24.0287 6.30188 23.4297 6.30188C23.0688 6.30188 22.7293 6.44281 22.4723 6.69891C22.4672 6.70406 22.4612 6.70922 22.456 6.71437C22.2102 6.96789 22.0762 7.30133 22.0762 7.65453C22.0762 8.01203 22.2145 8.35063 22.4663 8.60586C22.4766 8.61531 22.4895 8.6282 22.5033 8.64195L22.5239 8.66258Z" fill="#16ADE1"/>
<path d="M31.2397 17.6998C31.0953 17.6998 30.9544 17.6483 30.8435 17.5512L24.5838 12.0666C24.4257 11.9283 24.3518 11.7177 24.3879 11.5106C24.424 11.3035 24.5658 11.1308 24.7617 11.0543C25.6486 10.7071 26.3782 10.0093 26.7649 9.13875C26.8483 8.9514 27.021 8.81906 27.2247 8.78812C27.4275 8.75719 27.632 8.83195 27.7678 8.98664L33.1853 15.1698C33.3151 15.3185 33.3641 15.5213 33.316 15.713C33.2678 15.9046 33.1286 16.0602 32.9438 16.1298C32.4102 16.33 31.996 16.7554 31.8086 17.2968C31.7433 17.4859 31.5877 17.6302 31.3944 17.6818C31.3428 17.693 31.2913 17.6998 31.2397 17.6998ZM26.0413 11.7435L31.0584 16.1392C31.2569 15.8522 31.5027 15.6021 31.7854 15.3967L27.4198 10.4149C27.0528 10.9426 26.5827 11.3963 26.0413 11.7435Z" fill="#4D4D4D"/>
<path d="M29.4755 25.874H26.9902C26.6577 25.874 26.3887 25.605 26.3887 25.2724V20.1385C26.3887 19.9176 26.5098 19.714 26.7041 19.6091L30.8162 17.3868C31.0027 17.2862 31.2287 17.2905 31.41 17.3997C31.5922 17.5079 31.7039 17.7047 31.7039 17.9161C31.7039 18.6002 32.052 19.2147 32.6355 19.5644C32.8211 19.6753 32.932 19.8781 32.9277 20.0938C32.9225 20.3095 32.8022 20.5072 32.6123 20.6094L30.0771 21.9793V25.2715C30.0771 25.6041 29.8081 25.874 29.4755 25.874ZM27.5918 24.6708H28.874V21.6209C28.874 21.4001 28.9952 21.1964 29.1894 21.0915L31.2691 19.9675C30.9863 19.6418 30.7732 19.2594 30.6434 18.8477L27.5918 20.4969V24.6708Z" fill="#4D4D4D"/>
<path d="M40.2503 25.8743H37.765C37.4324 25.8743 37.1635 25.6053 37.1635 25.2727V21.9805L34.63 20.6115C34.4401 20.5092 34.3198 20.3124 34.3146 20.0958C34.3095 19.8801 34.4212 19.6782 34.606 19.5665C35.1886 19.2158 35.5367 18.6005 35.5367 17.9216C35.5367 17.7094 35.6484 17.5108 35.8306 17.4026C36.0128 17.2943 36.2379 17.2866 36.4244 17.388L40.5365 19.6103C40.7307 19.7151 40.8519 19.9188 40.8519 20.1397V25.2736C40.8519 25.6044 40.5829 25.8743 40.2503 25.8743ZM38.3674 24.6712H39.6496V20.498L36.598 18.8489C36.4691 19.2614 36.2551 19.643 35.9732 19.9695L38.052 21.0927C38.2463 21.1976 38.3674 21.4012 38.3674 21.6221V24.6712Z" fill="#4D4D4D"/>
<path d="M33.6204 21.0398C33.0541 21.0398 32.4989 20.886 32.0151 20.5955C31.0809 20.0352 30.5 19.01 30.5 17.9212C30.5009 17.5705 30.5584 17.2302 30.6702 16.9037C30.9761 16.0211 31.6498 15.3284 32.5204 15.0019C32.8693 14.8687 33.2405 14.8008 33.6204 14.8008C35.3366 14.8008 36.7356 16.1981 36.7399 17.9152V17.916V17.9212C36.7399 19.01 36.1598 20.0352 35.2257 20.5964C34.7402 20.8869 34.1859 21.0398 33.6204 21.0398ZM33.6204 16.0039C33.3875 16.0039 33.1598 16.0452 32.9458 16.1268C32.4095 16.3279 31.9953 16.7533 31.808 17.2947C31.7401 17.4949 31.704 17.7055 31.7031 17.9177C31.7031 18.6001 32.0512 19.2137 32.6347 19.5634C32.932 19.7422 33.2723 19.8359 33.6204 19.8359C33.9684 19.8359 34.3087 19.7422 34.607 19.5634C35.1887 19.2137 35.5368 18.5984 35.5368 17.9195L36.1384 17.9143L35.5368 17.9152C35.5342 16.8624 34.6748 16.0039 33.6204 16.0039Z" fill="#16ADE1"/>
<path d="M37.7661 31.6576H29.4766C29.144 31.6576 28.875 31.3886 28.875 31.056V23.582C28.875 23.2495 29.144 22.9805 29.4766 22.9805H37.7661C38.0987 22.9805 38.3677 23.2495 38.3677 23.582V31.056C38.3677 31.3886 38.0978 31.6576 37.7661 31.6576ZM30.0773 30.4545H37.1637V24.1836H30.0773V30.4545Z" fill="#16ADE1"/>
<path d="M25.0059 35.4355C24.9663 35.4355 24.9268 35.4312 24.8881 35.4235C24.8503 35.4158 24.8125 35.4037 24.7755 35.3891C24.7395 35.3736 24.7051 35.3556 24.6724 35.3341C24.6389 35.3118 24.6088 35.2869 24.5805 35.2594C24.4687 35.1468 24.4043 34.9921 24.4043 34.834C24.4043 34.7944 24.4086 34.7549 24.4163 34.7162C24.4241 34.6776 24.4352 34.6397 24.4507 34.6036C24.4653 34.5676 24.4842 34.5323 24.5057 34.4997C24.528 34.467 24.553 34.4361 24.5805 34.4086C24.6088 34.3802 24.6389 34.3553 24.6724 34.3338C24.7051 34.3115 24.7395 34.2934 24.7755 34.2779C24.8125 34.2633 24.8503 34.2513 24.8881 34.2436C25.0841 34.2049 25.292 34.2685 25.4312 34.4086C25.4596 34.4361 25.4845 34.467 25.506 34.4997C25.5284 34.5323 25.5464 34.5676 25.5619 34.6036C25.5765 34.6397 25.5885 34.6776 25.5962 34.7162C25.604 34.7549 25.6074 34.7944 25.6074 34.834C25.6074 34.9921 25.5438 35.1468 25.4312 35.2594C25.3195 35.3711 25.164 35.4355 25.0059 35.4355Z" fill="#4D4D4D"/>
<path d="M42.2355 41.1947H25.0059C24.6733 41.1947 24.4043 40.9257 24.4043 40.5931V36.6245C24.4043 36.292 24.6733 36.023 25.0059 36.023C25.3384 36.023 25.6074 36.292 25.6074 36.6245V39.9916H41.633V31.6582H25.6074V33.0444C25.6074 33.377 25.3384 33.6459 25.0059 33.6459C24.6733 33.6459 24.4043 33.377 24.4043 33.0444V31.0566C24.4043 30.7241 24.6733 30.4551 25.0059 30.4551H42.2346C42.5672 30.4551 42.8362 30.7241 42.8362 31.0566V40.5931C42.837 40.9248 42.5672 41.1947 42.2355 41.1947Z" fill="#4D4D4D"/>
<path d="M15.1863 41.1943H1.76367C1.43109 41.1943 1.16211 40.9254 1.16211 40.5928V34.5127C1.16211 34.1801 1.43109 33.9111 1.76367 33.9111H15.1863C15.5188 33.9111 15.7878 34.1801 15.7878 34.5127V40.5928C15.7878 40.9245 15.5188 41.1943 15.1863 41.1943ZM2.36523 39.9912H14.5847V35.1143H2.36523V39.9912Z" fill="#4D4D4D"/>
</svg>
