<svg width="32" height="32" viewBox="0 0 32 32" fill="none" xmlns="http://www.w3.org/2000/svg">
<rect width="32" height="32" fill="#0068A4"/>
<path d="M23.6616 11.8843C23.7736 11.5123 23.6616 11.2395 23.132 11.2395H21.3776C20.9312 11.2395 20.7272 11.4755 20.6152 11.7347C20.6152 11.7347 19.7232 13.9099 18.4592 15.3203C18.0512 15.7307 17.8648 15.8603 17.6424 15.8603C17.5312 15.8603 17.3696 15.7307 17.3696 15.3587V11.8843C17.3696 11.4379 17.2408 11.2395 16.8688 11.2395H14.112C13.8336 11.2395 13.6656 11.4459 13.6656 11.6427C13.6656 12.0651 14.2976 12.1627 14.3624 13.3531V15.9355C14.3624 16.5011 14.2608 16.6043 14.0368 16.6043C13.4424 16.6043 11.996 14.4211 11.1376 11.9219C10.9704 11.4363 10.8016 11.2403 10.3536 11.2403H8.60001C8.09841 11.2403 7.99841 11.4763 7.99841 11.7355C7.99841 12.2011 8.59281 14.5051 10.7672 17.5523C12.2168 19.6331 14.2576 20.7611 16.1168 20.7611C17.2312 20.7611 17.3688 20.5107 17.3688 20.0787V18.5059C17.3688 18.0051 17.4752 17.9043 17.828 17.9043C18.0872 17.9043 18.5336 18.0355 19.5744 19.0379C20.7632 20.2267 20.96 20.7603 21.628 20.7603H23.3816C23.8824 20.7603 24.1328 20.5099 23.9888 20.0155C23.8312 19.5235 23.2632 18.8075 22.5096 17.9603C22.1 17.4771 21.488 16.9571 21.3016 16.6971C21.0416 16.3619 21.1168 16.2139 21.3016 15.9163C21.3024 15.9171 23.4392 12.9075 23.6616 11.8843Z" fill="white"/>
</svg>
