<svg width="32" height="32" viewBox="0 0 32 32" fill="none" xmlns="http://www.w3.org/2000/svg">
<rect width="32" height="32" fill="#32D583"/>
<path fill-rule="evenodd" clip-rule="evenodd" d="M21.1248 10.9067C20.4595 10.237 19.6679 9.70601 18.7959 9.34444C17.9238 8.98286 16.9888 8.79792 16.0448 8.80032C12.0864 8.80032 8.86397 12.0219 8.86237 15.9819C8.86237 17.2475 9.19277 18.4827 9.82077 19.5723L8.80237 23.2931L12.6096 22.2939C13.6627 22.8672 14.8425 23.1678 16.0416 23.1683H16.0448C20.0024 23.1683 23.2248 19.9467 23.2264 15.9867C23.2291 15.0431 23.0448 14.1083 22.684 13.2364C22.3233 12.3644 21.7933 11.5726 21.1248 10.9067ZM16.0448 21.9563H16.0424C14.9732 21.9564 13.9237 21.6688 13.004 21.1235L12.7864 20.9939L10.5272 21.5867L11.1296 19.3843L10.988 19.1587C10.3902 18.2071 10.0738 17.1057 10.0752 15.9819C10.0768 12.6907 12.7544 10.0131 16.0472 10.0131C16.8314 10.0114 17.6081 10.1652 18.3325 10.4656C19.0569 10.7661 19.7144 11.2072 20.2672 11.7635C20.8229 12.3171 21.2633 12.9754 21.5631 13.7003C21.8628 14.4252 22.0159 15.2023 22.0136 15.9867C22.012 19.2779 19.3344 21.9563 16.0448 21.9563ZM19.3192 17.4851C19.1392 17.3947 18.2576 16.9611 18.0928 16.9011C17.9288 16.8411 17.8096 16.8115 17.6896 16.9907C17.5696 17.1699 17.2256 17.5739 17.1208 17.6939C17.016 17.8139 16.9112 17.8283 16.732 17.7387C16.5528 17.6491 15.9744 17.4595 15.2888 16.8483C14.7552 16.3723 14.3952 15.7851 14.2904 15.6051C14.1856 15.4251 14.2792 15.3283 14.3696 15.2387C14.4504 15.1587 14.5488 15.0291 14.6384 14.9243C14.728 14.8195 14.7576 14.7451 14.8176 14.6251C14.8776 14.5051 14.848 14.4003 14.8024 14.3107C14.7576 14.2203 14.3984 13.3371 14.2488 12.9779C14.104 12.6299 13.956 12.6763 13.8456 12.6715C13.7312 12.6668 13.6168 12.6647 13.5024 12.6651C13.4114 12.6674 13.3218 12.6885 13.2394 12.7271C13.1569 12.7656 13.0833 12.8208 13.0232 12.8891C12.8584 13.0691 12.3952 13.5027 12.3952 14.3859C12.3952 15.2691 13.0384 16.1227 13.128 16.2427C13.2176 16.3627 14.3936 18.1747 16.1936 18.9523C16.6224 19.1371 16.9568 19.2475 17.2168 19.3307C17.6464 19.4675 18.0376 19.4475 18.3472 19.4019C18.692 19.3507 19.4088 18.9683 19.5584 18.5491C19.708 18.1299 19.708 17.7707 19.6632 17.6955C19.6184 17.6203 19.4976 17.5747 19.3192 17.4851Z" fill="white"/>
</svg>
