<svg width="40" height="39" viewBox="0 0 40 39" fill="none" xmlns="http://www.w3.org/2000/svg">
<path d="M27.6611 9.79836C27.5765 9.90079 27.4847 10.0037 27.3804 10.1024C27.0823 10.3867 27.0699 10.8584 27.3527 11.1579C27.6374 11.459 28.1125 11.4715 28.4126 11.1863C28.5608 11.0457 28.6932 10.9039 28.8161 10.755C29.0807 10.4363 29.0362 9.96318 28.7166 9.69946C28.2952 9.41257 27.892 9.56741 27.6611 9.79836Z" fill="#007DC5"/>
<path d="M29.9213 5.53826C29.3494 6.11015 29.0316 6.77198 28.7941 7.38328C28.6449 7.76799 28.8352 8.20088 29.2196 8.35107C29.6055 8.50325 30.0416 8.31235 30.1917 7.92561C30.399 7.39206 30.6151 6.96138 30.9768 6.59967C31.4347 6.14176 32.4012 6.07854 33.4914 6.66567C33.8544 6.85917 34.3056 6.72337 34.5015 6.36161C34.6992 5.99752 34.5636 5.54212 34.1989 5.34553C33.4885 4.96297 32.7173 4.74422 31.9519 4.74247C31.1658 4.75456 30.4626 4.99687 29.9213 5.53826Z" fill="#007DC5"/>
<path fill-rule="evenodd" clip-rule="evenodd" d="M27.933 3.19039C28.9481 2.17522 30.2881 1.67924 31.6595 1.67578C31.7509 1.67578 31.8427 1.67656 31.9343 1.68174C33.4003 1.74831 34.8806 2.37366 36.0278 3.52086C38.3221 5.81526 38.5253 9.45001 36.3596 11.6157C35.1935 12.7818 33.9099 13.4053 32.6867 13.9994L32.4869 14.0966C32.2324 14.2205 31.9802 14.3456 31.7311 14.4737C33.3406 16.5103 34.6247 18.5792 35.3202 20.4853C35.7029 21.5342 35.9118 22.5374 35.8626 23.4793C35.8234 24.2282 35.6025 24.9488 35.1769 25.5494C35.2647 25.7508 35.3314 25.9586 35.3757 26.1708C35.56 27.0518 35.3068 28.0131 34.6185 28.7014C33.2423 30.0775 30.8545 30.1152 29.1215 28.9059C28.4042 28.4053 27.6965 27.8923 26.9988 27.3694L26.7342 27.6339C25.458 28.9099 23.352 29.0601 21.9434 27.9044C21.7473 27.7436 21.552 27.5808 21.3572 27.4176C21.3723 28.5873 20.9374 29.7627 20.0487 30.6514L15.4948 35.2039C12.5566 38.1423 7.68701 37.9982 4.63839 34.9495C1.5898 31.9009 1.44582 27.0255 4.38401 24.0873L8.93065 19.5392C9.22328 19.245 9.69939 19.245 9.99203 19.5392C10.2823 19.8312 10.2823 20.3028 9.99203 20.5947L5.43953 25.1473C3.10378 27.483 3.18855 31.3887 5.69391 33.894C8.19929 36.3996 12.105 36.4785 14.4407 34.1427L18.9874 29.5961C20.0769 28.5066 20.1556 26.8058 19.2257 25.6269C18.8141 25.8961 18.357 26.0789 17.885 26.1722C17.3494 26.2392 16.9151 26.2379 16.3281 26.1575C15.6562 26.0107 15.0154 25.6781 14.4889 25.1532C13.9508 24.6166 13.6152 23.9612 13.4729 23.2746C13.4729 23.2746 13.4075 22.7993 13.4086 22.4932C13.4097 22.1868 13.4788 21.7118 13.4788 21.7118C13.578 21.2453 13.7646 20.7956 14.0372 20.3902C13.2336 19.5061 12.4481 18.6008 11.6835 17.6724C10.525 16.2658 10.6718 14.1579 11.9481 12.8817L12.2142 12.6126C11.68 11.9002 11.1561 11.1755 10.644 10.4387C9.4378 8.70284 9.48902 6.31758 10.8648 4.94179C11.6242 4.18228 12.932 3.95548 14.0065 4.39503C14.6056 3.96965 15.3214 3.74961 16.0708 3.70936C17.0132 3.65899 18.0212 3.86417 19.0707 4.2459C20.9742 4.93824 23.0409 6.21665 25.0749 7.82034C25.2035 7.57034 25.3276 7.31849 25.4521 7.06303L25.549 6.86366C26.1432 5.64037 26.7667 4.35664 27.933 3.19039ZM34.9722 4.58216C34.03 3.63989 32.8364 3.17138 31.6931 3.16988C30.6842 3.16834 29.7148 3.5313 28.9943 4.25185C28.009 5.23713 27.4681 6.34838 26.8607 7.59628L26.7999 7.72107C26.1672 9.01979 25.4418 10.4539 24.0427 11.7984C23.7442 12.0849 23.2691 12.0751 22.9828 11.7758C22.6947 11.4771 22.7045 11.0009 23.0048 10.7144C23.5426 10.1976 23.9624 9.67088 24.3191 9.13115C22.3111 7.5299 20.2755 6.27855 18.5561 5.65317C17.6356 5.31846 16.812 5.16452 16.1527 5.19993C15.8319 5.21686 15.5542 5.27302 15.3077 5.36941C21.8657 13.7769 24.825 16.4721 34.2033 24.2314C34.2957 23.9892 34.3492 23.7158 34.3656 23.401C34.4 22.7425 34.2482 21.9178 33.9124 20.9976C33.2844 19.2764 32.0275 17.2364 30.4213 15.2258C29.8803 15.5831 29.3515 16.0055 28.8336 16.5445C28.5472 16.8447 28.0722 16.8544 27.7737 16.5672C27.4738 16.2812 27.4633 15.8061 27.7502 15.5072C29.0947 14.1082 30.5303 13.3828 31.829 12.75L31.9539 12.6892C33.2017 12.0818 34.3129 11.5409 35.2982 10.5557C36.8354 9.01848 36.7459 6.35582 34.9722 4.58216ZM32.9065 25.1151C25.872 20.1877 19.6157 14.1566 14.4231 6.6595C13.7741 5.74614 12.7209 5.29699 11.9203 6.00157C11.2068 6.71502 11.0734 8.43214 11.8764 9.58771C17.6231 17.3022 21.7279 21.3193 29.9782 27.6793C31.1331 28.4851 32.8455 28.3528 33.5585 27.6399C33.9146 27.2836 34.0041 26.9136 33.9123 26.4747C33.8205 26.0358 33.4979 25.5294 32.9065 25.1151ZM25.8015 26.4543C21.0988 22.7823 16.8618 18.5813 13.1322 13.8143L13.0094 13.9371C12.3003 14.6463 12.2164 15.9615 12.8428 16.7221C15.9013 20.4357 19.2914 23.7909 22.8936 26.7451C23.6556 27.3703 24.9694 27.2876 25.6786 26.5785L25.8015 26.4543ZM15.5503 24.0976C16.2696 24.9015 17.2864 24.9301 18.1175 24.542L15.0986 21.5334C14.7313 22.4573 14.831 23.2937 15.5503 24.0976Z" fill="#4D4D4D"/>
<path d="M13.4788 21.7118C12.2058 21.4625 10.8856 21.841 9.99201 22.7118L6.70995 25.9939C4.83466 27.8692 4.86407 30.9445 6.75381 32.8343C8.64356 34.724 11.7189 34.7475 13.5942 32.8723L16.8719 29.5961C17.7981 28.6698 18.138 27.3714 17.885 26.1722C17.3494 26.2392 16.9151 26.2379 16.3281 26.1575C16.6275 26.9543 16.4633 27.8877 15.8164 28.5346L12.5343 31.8167C11.2392 33.1118 9.13497 33.0984 7.80931 31.7728C6.48361 30.4471 6.4762 28.3488 7.77129 27.0537L11.0533 23.7716C11.7519 23.0731 12.6726 22.9345 13.4729 23.2746C13.4729 23.2746 13.4075 22.7993 13.4086 22.4932C13.4097 22.1868 13.4788 21.7118 13.4788 21.7118Z" fill="#007DC5"/>
</svg>
