<svg width="34" height="34" viewBox="0 0 34 34" fill="none" xmlns="http://www.w3.org/2000/svg">
<path d="M33.4712 24.751H30.2457C29.9813 24.751 29.717 24.9577 29.717 25.2677V29.7631H4.28305V25.2677C4.28305 25.0093 4.07154 24.751 3.75428 24.751H0.528771C0.264386 24.751 0 24.9577 0 25.2677V33.4835C0 33.7936 0.211509 34.0002 0.528771 34.0002H33.4712C33.7356 34.0002 34 33.7936 34 33.4835V25.2677C34 24.9577 33.7885 24.751 33.4712 24.751Z" fill="#4D4E50"/>
<path d="M11.8961 3.92706H22.0485C22.3658 3.92706 22.6831 3.6687 22.6831 3.307V0.620068C22.6831 0.310037 22.4187 0 22.0485 0H11.8961C11.5789 0 11.2616 0.258365 11.2616 0.620068V3.307C11.3145 3.6687 11.5789 3.92706 11.8961 3.92706Z" fill="#4D4E50"/>
<path d="M10.0461 18.9639L15.9154 25.7329C16.3913 26.2496 17.5546 26.2496 18.0305 25.7329L23.8999 18.9639L29.7693 12.1949C30.2451 11.6782 29.6635 11.0065 28.7117 11.0065H22.578V5.4259C22.578 5.16754 22.3665 4.90918 22.0492 4.90918H11.7381C11.4738 4.90918 11.2094 5.11587 11.2094 5.4259V11.0065H5.23426C4.28247 11.0065 3.70082 11.6782 4.17672 12.1949L10.0461 18.9639Z" fill="#4D4E50"/>
</svg>
