<svg width="16" height="16" viewBox="0 0 16 16" fill="none" xmlns="http://www.w3.org/2000/svg">
<path d="M15.7512 11.6475H14.2333C14.1089 11.6475 13.9844 11.7447 13.9844 11.8906V14.0061H2.01555V11.8906C2.01555 11.769 1.91602 11.6475 1.76672 11.6475H0.248834C0.124417 11.6475 0 11.7447 0 11.8906V15.7569C0 15.9028 0.0995334 16.0001 0.248834 16.0001H15.7512C15.8756 16.0001 16 15.9028 16 15.7569V11.8906C16 11.7447 15.9005 11.6475 15.7512 11.6475Z" fill="#FFFFFF"/>
<path d="M5.59816 1.84803H10.3758C10.5251 1.84803 10.6744 1.72645 10.6744 1.55623V0.291797C10.6744 0.1459 10.5499 0 10.3758 0H5.59816C5.44886 0 5.29956 0.121584 5.29956 0.291797V1.55623C5.32444 1.72645 5.44886 1.84803 5.59816 1.84803Z" fill="#FFFFFF"/>
<path d="M4.72754 8.92405L7.48959 12.1095C7.71354 12.3526 8.26098 12.3526 8.48493 12.1095L11.247 8.92405L14.009 5.73864C14.233 5.49547 13.9593 5.17936 13.5114 5.17936H10.6249V2.55322C10.6249 2.43164 10.5254 2.31006 10.3761 2.31006H5.52381C5.39939 2.31006 5.27497 2.40732 5.27497 2.55322V5.17936H2.46315C2.01525 5.17936 1.74154 5.49547 1.96549 5.73864L4.72754 8.92405Z" fill="#FFFFFF"/>
</svg>
