<svg width="25" height="17" viewBox="0 0 25 17" fill="none" xmlns="http://www.w3.org/2000/svg">
<path d="M1.03889 8.30656C3.4933 2.41629 10.6143 -0.507188 16.9441 1.77679C20.1652 2.93908 22.7121 5.30908 23.9611 8.30656C24.013 8.431 24.013 8.569 23.9611 8.69344C21.5067 14.5837 14.3857 17.5072 8.0559 15.2232C4.83476 14.0609 2.28791 11.6909 1.03889 8.69344C0.987036 8.569 0.987036 8.431 1.03889 8.30656ZM8.47165 14.2254C14.1395 16.2706 20.5073 13.7095 22.8059 8.50005C21.6463 5.87456 19.3785 3.80299 16.5283 2.77456C10.8605 0.729413 4.49271 3.2905 2.1941 8.49995C3.35372 11.1254 5.62148 13.197 8.47165 14.2254ZM12.5 12.7806C9.95949 12.7806 7.9 10.8641 7.9 8.5C7.9 6.1359 9.95949 4.21941 12.5 4.21941C15.0405 4.21941 17.1 6.1359 17.1 8.5C17.1 10.8641 15.0405 12.7806 12.5 12.7806ZM12.5 11.7104C14.4054 11.7104 15.95 10.2731 15.95 8.5C15.95 6.72692 14.4054 5.28956 12.5 5.28956C10.5946 5.28956 9.05 6.72692 9.05 8.5C9.05 10.2731 10.5946 11.7104 12.5 11.7104Z" fill="#CCCCCC" stroke="#CCCCCC" stroke-width="0.4"/>
</svg>
