<svg width="169" height="54" viewBox="0 0 169 54" fill="none" xmlns="http://www.w3.org/2000/svg">
<path d="M5.03788 34.7566H1.14648V17.4761H12.9454V20.7675H5.03788V34.7566Z" fill="#919191"/>
<path d="M24.7306 28.1732C24.7306 29.2039 24.5808 30.1515 24.2815 31.0159C23.9822 31.8637 23.5497 32.5951 22.9844 33.2102C22.4189 33.8086 21.7371 34.2742 20.9388 34.6066C20.1573 34.9392 19.2758 35.1053 18.2946 35.1053C17.3302 35.1053 16.4488 34.9392 15.6506 34.6066C14.8689 34.2742 14.1954 33.8086 13.63 33.2102C13.0646 32.5951 12.6239 31.8637 12.3079 31.0159C11.992 30.1515 11.834 29.2039 11.834 28.1732C11.834 27.1425 11.992 26.2033 12.3079 25.3555C12.6405 24.5076 13.0896 23.7845 13.655 23.1861C14.237 22.5877 14.9188 22.1221 15.7004 21.7897C16.4987 21.4573 17.3635 21.291 18.2946 21.291C19.2425 21.291 20.1074 21.4573 20.889 21.7897C21.6872 22.1221 22.369 22.5877 22.9345 23.1861C23.4998 23.7845 23.9406 24.5076 24.2565 25.3555C24.5725 26.2033 24.7306 27.1425 24.7306 28.1732ZM20.9388 28.1732C20.9388 27.0263 20.706 26.1286 20.2405 25.4802C19.7914 24.8152 19.1428 24.4828 18.2946 24.4828C17.4467 24.4828 16.7897 24.8152 16.3241 25.4802C15.8584 26.1286 15.6256 27.0263 15.6256 28.1732C15.6256 29.3204 15.8584 30.2346 16.3241 30.9161C16.7897 31.5811 17.4467 31.9135 18.2946 31.9135C19.1428 31.9135 19.7914 31.5811 20.2405 30.9161C20.706 30.2346 20.9388 29.3204 20.9388 28.1732Z" fill="#919191"/>
<path d="M34.5356 28.298C34.5356 27.1509 34.2778 26.2367 33.7623 25.5551C33.2467 24.8568 32.4817 24.5079 31.4674 24.5079C31.1347 24.5079 30.8272 24.5244 30.5444 24.5577C30.2617 24.5743 30.0289 24.5993 29.846 24.6324V31.3402C30.0788 31.4898 30.3782 31.6145 30.744 31.7142C31.1264 31.8139 31.509 31.8638 31.8914 31.8638C33.6541 31.8638 34.5356 30.6752 34.5356 28.298ZM38.3271 28.1983C38.3271 29.2123 38.2025 30.135 37.953 30.9661C37.7037 31.7973 37.3377 32.5122 36.8555 33.1106C36.3732 33.709 35.7746 34.1746 35.0595 34.507C34.3444 34.8394 33.5212 35.0057 32.5899 35.0057C32.0743 35.0057 31.5922 34.9558 31.1431 34.8561C30.6941 34.7564 30.2617 34.615 29.846 34.4321V39.3694H26.1292V22.0891C26.4618 21.9892 26.8443 21.8978 27.2767 21.8148C27.709 21.7149 28.158 21.6319 28.6237 21.5654C29.1059 21.4989 29.5882 21.4489 30.0705 21.4158C30.5694 21.366 31.0432 21.3409 31.4922 21.3409C32.5732 21.3409 33.5378 21.5072 34.386 21.8396C35.2341 22.1555 35.9492 22.6126 36.5311 23.2112C37.1132 23.793 37.5539 24.5077 37.8533 25.3555C38.1692 26.2034 38.3271 27.1509 38.3271 28.1983Z" fill="#919191"/>
<path d="M52.459 28.1732C52.459 29.2039 52.3094 30.1515 52.01 31.0159C51.7106 31.8637 51.2783 32.5951 50.7129 33.2102C50.1475 33.8086 49.4656 34.2742 48.6675 34.6066C47.8858 34.9392 47.0045 35.1053 46.0233 35.1053C45.0586 35.1053 44.1774 34.9392 43.3791 34.6066C42.5975 34.2742 41.924 33.8086 41.3585 33.2102C40.7932 32.5951 40.3525 31.8637 40.0365 31.0159C39.7206 30.1515 39.5625 29.2039 39.5625 28.1732C39.5625 27.1425 39.7206 26.2033 40.0365 25.3555C40.3691 24.5076 40.8181 23.7845 41.3836 23.1861C41.9656 22.5877 42.6474 22.1221 43.429 21.7897C44.2272 21.4573 45.0919 21.291 46.0233 21.291C46.9712 21.291 47.8359 21.4573 48.6176 21.7897C49.4157 22.1221 50.0975 22.5877 50.663 23.1861C51.2285 23.7845 51.669 24.5076 51.985 25.3555C52.301 26.2033 52.459 27.1425 52.459 28.1732ZM48.6675 28.1732C48.6675 27.0263 48.4345 26.1286 47.9689 25.4802C47.5199 24.8152 46.8714 24.4828 46.0233 24.4828C45.1751 24.4828 44.5182 24.8152 44.0526 25.4802C43.587 26.1286 43.3542 27.0263 43.3542 28.1732C43.3542 29.3204 43.587 30.2346 44.0526 30.9161C44.5182 31.5811 45.1751 31.9135 46.0233 31.9135C46.8714 31.9135 47.5199 31.5811 47.9689 30.9161C48.4345 30.2346 48.6675 29.3204 48.6675 28.1732Z" fill="#919191"/>
<path d="M53.0938 31.7141H54.7152C55.1809 31.1488 55.5385 30.4507 55.7878 29.6195C56.0539 28.7716 56.2368 27.8824 56.3367 26.9514C56.453 26.0039 56.5196 25.0646 56.5362 24.1336C56.5528 23.2026 56.5612 22.3715 56.5612 21.6401H66.7885V31.7141H69.0086V38.4966H65.8407V34.7563H56.2618V38.4966H53.0938V31.7141ZM63.0717 31.7141V24.6822H60.0285C59.9952 25.264 59.9537 25.8709 59.9038 26.5026C59.8705 27.1177 59.7956 27.7327 59.6793 28.3478C59.5795 28.9462 59.438 29.5363 59.2551 30.1181C59.0722 30.7 58.8311 31.232 58.5317 31.7141H63.0717Z" fill="#919191"/>
<path d="M75.8232 17.2764C78.401 17.2764 80.3799 17.7335 81.7601 18.6477C83.1404 19.5454 83.8305 21.025 83.8305 23.0863C83.8305 25.1643 83.1321 26.6688 81.7352 27.5996C80.3383 28.514 78.3427 28.9711 75.7485 28.9711H74.5262V34.7563H70.6348V17.7252C71.4829 17.5589 72.3809 17.4425 73.3288 17.3761C74.2767 17.3095 75.1081 17.2764 75.8232 17.2764ZM76.0728 20.5927C75.7901 20.5927 75.5073 20.6011 75.2246 20.6177C74.9585 20.6342 74.7257 20.651 74.5262 20.6675V25.6547H75.7485C77.0955 25.6547 78.1099 25.4718 78.7917 25.1061C79.4736 24.7404 79.8144 24.0589 79.8144 23.0613C79.8144 22.5793 79.723 22.1804 79.5401 21.8645C79.3737 21.5487 79.1244 21.2992 78.7917 21.1164C78.4757 20.917 78.085 20.784 77.6193 20.7174C77.1537 20.6342 76.6381 20.5927 76.0728 20.5927Z" fill="#919191"/>
<path d="M89.8304 32.163C90.1962 32.163 90.5455 32.1547 90.878 32.138C91.2107 32.1214 91.4768 32.0964 91.6763 32.0633V29.2455C91.5267 29.2122 91.3021 29.1789 91.0028 29.1458C90.7035 29.1125 90.429 29.0959 90.1796 29.0959C89.8304 29.0959 89.4978 29.1208 89.1819 29.1706C88.8825 29.2039 88.6164 29.2788 88.3836 29.395C88.1508 29.5115 87.9679 29.6693 87.8348 29.8689C87.7018 30.0683 87.6352 30.3177 87.6352 30.6169C87.6352 31.1987 87.8266 31.606 88.209 31.8388C88.6081 32.0548 89.1486 32.163 89.8304 32.163ZM89.531 21.291C90.6286 21.291 91.5432 21.4157 92.2749 21.665C93.0067 21.9144 93.5888 22.2718 94.0211 22.7373C94.4701 23.2027 94.786 23.7679 94.969 24.4329C95.1519 25.0979 95.2433 25.8376 95.2433 26.6521V34.3822C94.7113 34.4986 93.9712 34.6316 93.0233 34.7812C92.0754 34.9475 90.928 35.0306 89.581 35.0306C88.7329 35.0306 87.9596 34.9557 87.2611 34.8062C86.5793 34.6565 85.9889 34.4155 85.49 34.0831C84.991 33.7339 84.6086 33.2851 84.3425 32.7365C84.0764 32.1878 83.9434 31.5146 83.9434 30.7167C83.9434 29.952 84.093 29.3036 84.3924 28.7716C84.7083 28.2398 85.124 27.8158 85.6397 27.5C86.1551 27.1841 86.7454 26.9597 87.4107 26.8267C88.0759 26.6771 88.766 26.6023 89.4811 26.6023C89.9634 26.6023 90.3874 26.6273 90.7534 26.6771C91.1358 26.7103 91.4435 26.7603 91.6763 26.8267V26.4776C91.6763 25.8459 91.4851 25.3389 91.1025 24.9565C90.7201 24.5742 90.0549 24.3831 89.107 24.3831C88.475 24.3831 87.8514 24.4329 87.236 24.5326C86.6209 24.6158 86.0887 24.7405 85.6397 24.9066L85.1656 21.9144C85.3819 21.8478 85.6479 21.7814 85.9639 21.7149C86.2964 21.6319 86.654 21.5653 87.0366 21.5154C87.419 21.4489 87.8181 21.399 88.234 21.3659C88.6662 21.3159 89.0987 21.291 89.531 21.291Z" fill="#919191"/>
<path d="M108.786 18.573C108.171 18.706 107.589 18.7974 107.04 18.8474C106.491 18.8973 105.926 18.972 105.344 19.0719C104.845 19.1548 104.346 19.2796 103.847 19.4458C103.348 19.6121 102.883 19.8448 102.45 20.144C102.034 20.4267 101.669 20.7924 101.353 21.2412C101.037 21.6733 100.812 22.2136 100.679 22.862C101.76 22.3466 102.808 22.0891 103.822 22.0891C104.62 22.0891 105.36 22.222 106.042 22.488C106.724 22.7539 107.314 23.1529 107.813 23.6848C108.329 24.2168 108.728 24.8818 109.011 25.6798C109.31 26.4611 109.46 27.3753 109.46 28.4227C109.46 29.5531 109.293 30.5339 108.961 31.365C108.628 32.1963 108.171 32.8944 107.589 33.4597C107.023 34.0083 106.358 34.4238 105.593 34.7064C104.845 34.9724 104.038 35.1054 103.173 35.1054C100.862 35.1054 99.2073 34.4072 98.2095 33.0109C97.2118 31.5977 96.7129 29.5281 96.7129 26.8019C96.7129 25.0065 96.8875 23.4854 97.2366 22.2386C97.5859 20.9752 98.1098 19.928 98.8082 19.0967C99.5067 18.2489 100.371 17.5839 101.402 17.1019C102.434 16.6198 103.631 16.2374 104.995 15.9548C105.543 15.8385 106.092 15.7554 106.641 15.7055C107.206 15.639 107.78 15.5392 108.362 15.4062L108.786 18.573ZM100.604 25.9042C100.571 26.1369 100.546 26.4029 100.529 26.702C100.529 27.0013 100.529 27.2673 100.529 27.5C100.529 28.963 100.729 30.0684 101.128 30.8165C101.544 31.5646 102.234 31.9386 103.199 31.9386C104.013 31.9386 104.637 31.6228 105.069 30.9911C105.502 30.3594 105.718 29.5115 105.718 28.4476C105.718 28.032 105.668 27.633 105.568 27.2508C105.469 26.8518 105.311 26.5026 105.094 26.2033C104.878 25.9042 104.612 25.6631 104.296 25.4802C103.98 25.2974 103.606 25.2059 103.173 25.2059C102.741 25.2059 102.284 25.2558 101.802 25.3555C101.336 25.4554 100.937 25.6382 100.604 25.9042Z" fill="#919191"/>
<path d="M123.594 28.1732C123.594 29.2039 123.444 30.1515 123.145 31.0159C122.845 31.8637 122.413 32.5951 121.848 33.2102C121.282 33.8086 120.6 34.2742 119.802 34.6066C119.021 34.9392 118.139 35.1053 117.158 35.1053C116.193 35.1053 115.312 34.9392 114.514 34.6066C113.732 34.2742 113.059 33.8086 112.493 33.2102C111.928 32.5951 111.487 31.8637 111.171 31.0159C110.855 30.1515 110.697 29.2039 110.697 28.1732C110.697 27.1425 110.855 26.2033 111.171 25.3555C111.504 24.5076 111.953 23.7845 112.518 23.1861C113.1 22.5877 113.782 22.1221 114.564 21.7897C115.362 21.4573 116.227 21.291 117.158 21.291C118.106 21.291 118.971 21.4573 119.752 21.7897C120.55 22.1221 121.232 22.5877 121.798 23.1861C122.363 23.7845 122.804 24.5076 123.12 25.3555C123.436 26.2033 123.594 27.1425 123.594 28.1732ZM119.802 28.1732C119.802 27.0263 119.569 26.1286 119.104 25.4802C118.655 24.8152 118.006 24.4828 117.158 24.4828C116.31 24.4828 115.653 24.8152 115.187 25.4802C114.722 26.1286 114.489 27.0263 114.489 28.1732C114.489 29.3204 114.722 30.2346 115.187 30.9161C115.653 31.5811 116.31 31.9135 117.158 31.9135C118.006 31.9135 118.655 31.5811 119.104 30.9161C119.569 30.2346 119.802 29.3204 119.802 28.1732Z" fill="#919191"/>
<path d="M136.327 24.6822H132.136V34.7563H128.419V24.6822H124.229V21.6401H136.327V24.6822Z" fill="#919191"/>
<path d="M140.3 32.7863C140.3 33.5342 140.059 34.1078 139.576 34.5068C139.111 34.889 138.579 35.0803 137.98 35.0803C137.381 35.0803 136.841 34.889 136.359 34.5068C135.893 34.1078 135.66 33.5342 135.66 32.7863C135.66 32.0381 135.893 31.4729 136.359 31.0906C136.841 30.6916 137.381 30.4922 137.98 30.4922C138.579 30.4922 139.111 30.6916 139.576 31.0906C140.059 31.4729 140.3 32.0381 140.3 32.7863Z" fill="#919191"/>
<path d="M150.871 28.2979C150.871 27.1508 150.613 26.2365 150.098 25.555C149.582 24.8567 148.817 24.5077 147.803 24.5077C147.47 24.5077 147.163 24.5243 146.88 24.5576C146.597 24.5742 146.365 24.5992 146.182 24.6323V31.3401C146.414 31.4897 146.714 31.6144 147.08 31.7141C147.462 31.8138 147.845 31.8636 148.227 31.8636C149.99 31.8636 150.871 30.6751 150.871 28.2979ZM154.663 28.1982C154.663 29.2121 154.538 30.1348 154.289 30.966C154.039 31.7972 153.673 32.5121 153.191 33.1105C152.709 33.7089 152.11 34.1744 151.395 34.5068C150.68 34.8393 149.857 35.0055 148.926 35.0055C148.41 35.0055 147.928 34.9557 147.479 34.856C147.03 34.7563 146.597 34.6148 146.182 34.432V39.3693H142.465V22.0889C142.797 21.9891 143.18 21.8977 143.612 21.8147C144.045 21.7148 144.494 21.6318 144.959 21.5652C145.442 21.4988 145.924 21.4488 146.406 21.4157C146.905 21.3658 147.379 21.3408 147.828 21.3408C148.909 21.3408 149.874 21.5071 150.722 21.8395C151.57 22.1554 152.285 22.6125 152.867 23.2111C153.449 23.7929 153.89 24.5076 154.189 25.3554C154.505 26.2032 154.663 27.1508 154.663 28.1982Z" fill="#919191"/>
<path d="M168.171 21.6401C167.422 24.1669 166.642 26.5358 165.827 28.7468C165.011 30.9577 164.122 33.1022 163.157 35.1801C162.808 35.9283 162.459 36.56 162.109 37.0752C161.76 37.6072 161.378 38.0395 160.962 38.3719C160.546 38.721 160.072 38.9703 159.54 39.12C159.025 39.2862 158.418 39.3693 157.719 39.3693C157.137 39.3693 156.597 39.3112 156.098 39.1947C155.615 39.095 155.216 38.9786 154.9 38.8458L155.549 35.8783C155.931 36.0113 156.272 36.1027 156.572 36.1527C156.871 36.2025 157.187 36.2274 157.52 36.2274C158.185 36.2274 158.692 36.0445 159.041 35.6788C159.407 35.3297 159.715 34.8393 159.964 34.2076C159.116 32.5452 158.268 30.6834 157.42 28.6221C156.572 26.5441 155.773 24.2168 155.025 21.6401H158.966C159.133 22.2884 159.324 22.9949 159.54 23.7596C159.773 24.5076 160.014 25.2725 160.263 26.0537C160.513 26.8184 160.762 27.5665 161.012 28.2979C161.278 29.0293 161.527 29.6943 161.76 30.2927C161.976 29.6943 162.201 29.0293 162.434 28.2979C162.667 27.5665 162.891 26.8184 163.107 26.0537C163.34 25.2725 163.556 24.5076 163.756 23.7596C163.972 22.9949 164.163 22.2884 164.33 21.6401H168.171Z" fill="#919191"/>
</svg>
