<svg width="186" height="84" viewBox="0 0 186 84" fill="none" xmlns="http://www.w3.org/2000/svg">
<path d="M44.6278 31.7175H35.4626V52.7268H26.8963V31.7175H17.6712V60.2807H39.7157V65.5331H48.4017V52.7268H44.6278V31.7175Z" fill="#4C70B4"/>
<path d="M53.6734 60.2807H62.8986V39.2714H71.7044V60.2807H80.8696V31.7175H53.6734V60.2807Z" fill="#4C70B4"/>
<path d="M87.5783 60.2807H96.8034V39.2714H105.609V60.2807H114.774V31.7175H87.5783V60.2807Z" fill="#4C70B4"/>
<path d="M139.395 45.527L149.998 31.7175H139.155L130.709 42.9304V31.7175H121.483V60.2807H130.709V48.5368L140.832 60.2807H152.154L139.395 45.527Z" fill="#4C70B4"/>
<path d="M35.4629 48.4776H7.60776C6.88892 47.3563 5.57101 46.5891 4.13332 46.5891C1.85699 46.5891 0 48.4186 0 50.6611C0 52.9037 1.85699 54.7332 4.13332 54.7332C5.63091 54.7332 6.88892 53.966 7.60776 52.8447H35.4629V48.4776Z" fill="#73787B"/>
<path d="M71.705 47.7698C63.1388 48.3009 55.2315 48.4779 48.4025 48.4779H44.6286V52.786H48.4025C56.4296 52.786 64.2171 52.55 71.705 52.1369V47.7698Z" fill="#73787B"/>
<path d="M105.61 43.9927C97.1631 45.409 88.8366 46.4123 80.8694 47.0614V51.4285C89.4955 50.7204 97.7622 49.7171 105.61 48.4188V43.9927Z" fill="#73787B"/>
<path d="M186 10H172.282L177.733 15.3704C169.706 22.039 160.241 27.4684 149.998 31.7175L144.966 38.2681C159.223 32.9568 171.443 26.1701 180.788 18.3801L186 23.5144V10Z" fill="#73787B"/>
<path d="M114.775 46.7664C120.286 45.6451 125.618 44.3468 130.71 42.9304L135.083 37.147C128.433 39.2125 121.664 40.9239 114.835 42.3403V46.7664H114.775Z" fill="#73787B"/>
</svg>
