<svg width="186" height="84" viewBox="0 0 186 84" fill="none" xmlns="http://www.w3.org/2000/svg">
<path d="M44.514 31.8817H35.372V52.5661H26.8275V31.8817H17.6855V60.0032H39.6143V65.1743H48.2783V52.5661H44.514V31.8817Z" fill="#F5F5F5"/>
<path d="M53.5371 60.0032H62.7388V39.3188H71.5223V60.0032H80.724V31.8817H53.5371V60.0032Z" fill="#F5F5F5"/>
<path d="M87.3535 60.0032H96.5552V39.3188H105.398V60.0032H114.54V31.8817H87.3535V60.0032Z" fill="#F5F5F5"/>
<path d="M139.041 45.4776L149.617 31.8817H138.802L130.378 42.9211V31.8817H121.176V60.0032H130.378V48.4408L140.475 60.0032H151.769L139.041 45.4776Z" fill="#F5F5F5"/>
<path d="M35.3729 48.3827H7.58844C6.87142 47.2788 5.55689 46.5234 4.12285 46.5234C1.8523 46.5234 0 48.3246 0 50.5325C0 52.7404 1.8523 54.5415 4.12285 54.5415C5.61664 54.5415 6.87142 53.7862 7.58844 52.6823H35.3729V48.3827Z" fill="#007DC5"/>
<path d="M71.5233 47.6855C62.9788 48.2085 55.0916 48.3828 48.28 48.3828H44.5156V52.6242H48.28C56.2867 52.6242 64.0544 52.3918 71.5233 51.9851V47.6855Z" fill="#007DC5"/>
<path d="M105.404 43.9668C96.979 45.3612 88.6735 46.349 80.7266 46.9881V51.2877C89.3308 50.5904 97.5765 49.6027 105.404 48.3245V43.9668Z" fill="#007DC5"/>
<path d="M185.527 10.5H171.844L177.282 15.7873C169.275 22.3528 159.834 27.6982 149.617 31.8816L144.598 38.3309C158.819 33.1017 171.008 26.42 180.329 18.7505L185.527 23.8054V10.5Z" fill="#007DC5"/>
<path d="M114.543 46.6977C120.04 45.5938 125.358 44.3155 130.437 42.9211L134.799 37.2271C128.166 39.2606 121.414 40.9456 114.603 42.34V46.6977H114.543Z" fill="#007DC5"/>
</svg>
