<svg width="150" height="54" viewBox="0 0 150 54" fill="none" xmlns="http://www.w3.org/2000/svg">
<path d="M38.3152 54.0001V48.8838H17.1309V20.9768H26.0154V41.4931H34.1936V20.9768H43.0224V41.4931H46.6514V54.0001H38.3152Z" fill="#91989C"/>
<path d="M53.5664 48.8652V20.9583H79.7413V48.8652H70.9126V28.3722H62.4277V48.8885L53.5664 48.8652Z" fill="#91989C"/>
<path d="M88.0264 48.8652V20.9583H96.8877V31.3769L105.01 20.9769H115.437L105.215 33.9257L117.496 48.8652H106.618L96.8877 36.8327V48.8652H88.0264Z" fill="#91989C"/>
<path d="M150 0H137.096L142.105 5.01396C139.396 7.22326 130.023 14.0744 115.437 20.9768L109.861 28.0326C111.836 27.2047 113.709 26.3814 115.465 25.5768C131.771 18.0791 142.142 10.4233 145.065 7.9814L149.995 12.9163L150 0Z" fill="#005CA9"/>
<path d="M3.92583 35.4651C3.24314 35.466 2.57246 35.6449 1.97981 35.9841C1.38716 36.3233 0.892975 36.8111 0.545907 37.3995C0.198839 37.988 0.0108533 38.6568 0.000456042 39.34C-0.00994126 40.0233 0.157608 40.6975 0.48661 41.2963C0.815612 41.895 1.29472 42.3977 1.87678 42.7548C2.45883 43.1119 3.12376 43.3111 3.80611 43.3329C4.48846 43.3546 5.16469 43.1981 5.76825 42.8787C6.37181 42.5594 6.88187 42.0882 7.24823 41.5116H34.1992V37.3256H7.24823C6.89785 36.7586 6.40897 36.2902 5.82769 35.9647C5.24641 35.6392 4.59189 35.4673 3.92583 35.4651Z" fill="#005CA9"/>
<path d="M43.0137 37.307V41.493H45.1093C53.7582 41.4822 62.3915 40.7588 70.9218 39.3302V35.0884C62.3954 36.5538 53.7606 37.296 45.1093 37.307H43.0137Z" fill="#005CA9"/>
<path d="M79.7422 37.6188C85.2671 36.3955 90.4715 34.9537 95.304 33.4002L100.011 27.3816C93.3827 29.7786 86.6137 31.7668 79.7422 33.3351V37.6188Z" fill="#005CA9"/>
</svg>
