<svg width="127" height="38" viewBox="0 0 127 38" fill="none" xmlns="http://www.w3.org/2000/svg">
<path d="M30.3194 14.6338H24.093V28.6696H18.2735V14.6338H12.0471V33.7162H26.9824V37.2252H32.8833V28.6696H30.3194V14.6338Z" fill="white"/>
<path d="M36.4646 33.7162H42.7317V19.6804H48.714V33.7162H54.9811V14.6338H36.4646V33.7162Z" fill="white"/>
<path d="M59.4956 33.7162H65.7627V19.6804H71.7857V33.7162H78.0121V14.6338H59.4956V33.7162Z" fill="white"/>
<path d="M94.698 23.8596L101.901 14.6338H94.5352L88.7971 22.1248V14.6338H82.53V33.7162H88.7971V25.8703L95.6747 33.7162H103.366L94.698 23.8596Z" fill="white"/>
<path d="M24.0918 25.831H5.16834C4.67999 25.0819 3.78469 24.5693 2.808 24.5693C1.26156 24.5693 0 25.7916 0 27.2898C0 28.788 1.26156 30.0102 2.808 30.0102C3.82539 30.0102 4.67999 29.4976 5.16834 28.7485H24.0918V25.831Z" fill="#007DC5"/>
<path d="M48.7134 25.3579C42.8939 25.7127 37.5221 25.831 32.8828 25.831H30.319V28.7092H32.8828C38.336 28.7092 43.6264 28.5515 48.7134 28.2755V25.3579Z" fill="#007DC5"/>
<path d="M71.7896 22.8345C66.0515 23.7807 60.3948 24.451 54.9823 24.8846V27.8022C60.8425 27.3291 66.4585 26.6588 71.7896 25.7915V22.8345Z" fill="#007DC5"/>
<path d="M126.358 0.125H117.039L120.742 3.71281C115.289 8.168 108.859 11.7952 101.9 14.6339L98.4818 19.0103C108.167 15.4619 116.469 10.9278 122.818 5.72355L126.358 9.15366V0.125Z" fill="#007DC5"/>
<path d="M78.015 24.6877C81.759 23.9386 85.3809 23.0713 88.84 22.125L91.8108 18.2612C87.2936 19.6412 82.695 20.7845 78.0557 21.7308V24.6877H78.015Z" fill="#007DC5"/>
</svg>
