<svg width="16" height="16" viewBox="0 0 16 16" fill="none" xmlns="http://www.w3.org/2000/svg">
<path d="M12.8 7.79968H8.00002V4.79969C8.00002 3.15968 6.64002 1.79968 5.00001 1.79968C3.36 1.79968 2 3.15968 2 4.79969V5.3997V6.39969C2 6.71969 2.28001 6.9997 2.60001 6.9997C2.92001 6.9997 3.20002 6.71969 3.20002 6.39969V5.3997V4.79969C3.20002 3.7997 4.00002 2.9997 5.00001 2.9997C6 2.9997 6.8 3.7997 6.8 4.79969V7.7997C6.11999 7.7997 5.6 8.31969 5.6 8.9997V10.9997C5.6 12.7597 7.04 14.1997 8.8 14.1997H10.8C12.56 14.1997 14 12.7597 14 10.9997V8.99968C14 8.31967 13.48 7.79968 12.8 7.79968ZM10 10.9597V11.9997C10 12.1197 9.92 12.1997 9.80001 12.1997C9.68002 12.1997 9.60002 12.1197 9.60002 11.9997V10.9597C9.36002 10.8797 9.20002 10.6397 9.20002 10.3997C9.20002 10.0797 9.48003 9.79968 9.80003 9.79968C10.12 9.79968 10.4 10.0797 10.4 10.3997C10.4 10.6797 10.24 10.8797 10 10.9597Z" fill="white"/>
</svg>
