<svg width="45" height="27" viewBox="0 0 45 27" fill="none" xmlns="http://www.w3.org/2000/svg">
<path d="M9.60345 3.03448C8.13678 3.03448 6.92299 4.24828 6.92299 5.71494V9.76092H8.44023V5.71494C8.44023 5.05747 8.94598 4.55172 9.60345 4.55172H18.9092V3.03448H9.60345Z" fill="#007DC5"/>
<path d="M38.077 5.71494C38.077 4.24828 36.8632 3.03448 35.3965 3.03448H26.0908V4.55172H35.3965C36.054 4.55172 36.5598 5.05747 36.5598 5.71494V9.76092H38.077V5.71494Z" fill="#007DC5"/>
<path d="M24.5736 3.7931V9.76092H26.0908V4.55172V3.03448H25.3322C24.9276 3.03448 24.5736 3.38851 24.5736 3.7931Z" fill="#4D4D4D"/>
<path d="M27.6586 13.908C27.6586 13.5034 27.3046 13.1494 26.9 13.1494H18.1C17.6954 13.1494 17.3414 13.5034 17.3414 13.908C17.3414 14.3126 17.6954 14.6667 18.1 14.6667H26.9506C27.3552 14.6667 27.6586 14.3126 27.6586 13.908Z" fill="#007DC5"/>
<path fill-rule="evenodd" clip-rule="evenodd" d="M44.5 14.7678C44.5 13.4529 43.4379 12.3908 42.123 12.3908H40.9598V23.8713H42.123C43.4379 23.8713 44.5 22.8092 44.5 21.4943V14.7678ZM42.123 22.354H41.1115V13.908H42.123C42.5782 13.908 42.9828 14.3126 42.9828 14.7678V21.4943C42.9828 21.9494 42.5782 22.354 42.123 22.354Z" fill="#007DC5"/>
<path fill-rule="evenodd" clip-rule="evenodd" d="M38.3299 26.5011H27.9115C27.5069 26.5011 27.1529 26.1471 27.1529 25.7425C27.1529 24.9333 26.9 24.1747 26.4954 23.5172C25.6356 22.1012 24.1184 21.2414 22.5 21.2414C20.8816 21.2414 19.3138 22.1012 18.5046 23.5172C18.1 24.1747 17.8977 24.9839 17.8471 25.7425C17.8471 26.1471 17.4931 26.5011 17.0885 26.5011H6.67011C5.25402 26.5011 4.0908 25.3379 4.0908 23.9218V23.8713V12.3908V12.3402C4.0908 10.9241 5.25402 9.76092 6.67011 9.76092H6.92299H8.44023H18.9092V4.55172V3.03448V0.758621C18.9092 0.354023 19.2632 0 19.6678 0H25.3322C25.7368 0 26.0908 0.354023 26.0908 0.758621V3.03448H25.3322C24.9276 3.03448 24.5736 3.38851 24.5736 3.7931V1.51724H20.4264V3.7931V9.76092H24.5736H26.0908H36.5598H38.077H38.3805C39.7966 9.76092 40.9598 10.9241 40.9598 12.3402V12.3908V23.8713V23.9218C40.9092 25.3379 39.746 26.5011 38.3299 26.5011ZM6.67011 11.2782H7.68161H19.6678H25.3322H37.3184H38.3805C38.9874 11.2782 39.4425 11.7839 39.4425 12.3402V23.9218C39.4425 24.5287 38.9368 24.9839 38.3805 24.9839H28.6195C28.5184 24.1747 28.2149 23.4161 27.8609 22.7586C26.7483 20.8874 24.7253 19.7241 22.5506 19.7241C20.3759 19.7241 18.3529 20.8874 17.2402 22.7586C16.8356 23.4161 16.5322 24.1747 16.431 24.9839H6.67011C6.06322 24.9839 5.60805 24.4782 5.60805 23.9218V12.3402C5.60805 11.7333 6.11379 11.2782 6.67011 11.2782Z" fill="#4D4D4D"/>
<path fill-rule="evenodd" clip-rule="evenodd" d="M0.5 21.4943C0.5 22.8092 1.56207 23.8713 2.87701 23.8713H4.0908V12.3908H2.87701C1.56207 12.3908 0.5 13.4529 0.5 14.7678V21.4943ZM2.01724 14.7678C2.01724 14.3126 2.42184 13.908 2.87701 13.908H3.88851V22.354H2.87701C2.42184 22.354 2.01724 21.9494 2.01724 21.4943V14.7678Z" fill="#007DC5"/>
</svg>
