<svg width="40" height="40" viewBox="0 0 40 40" fill="none" xmlns="http://www.w3.org/2000/svg">
<ellipse cx="5.50071" cy="5.02857" rx="5.50071" ry="5.02857" transform="matrix(-1 0 0 1 25.4844 9)" stroke="white" stroke-width="1.5"/>
<path d="M10.3586 24.9999C11.0788 23.683 13.9069 22.779 16.3129 22.2312C18.7276 21.6815 21.2347 21.7307 23.6395 22.3228C26.0491 22.9161 28.8891 23.837 29.6111 24.9999C30.1732 25.9054 30.0131 28.1234 29.8267 29.594C29.7245 30.4001 29.0028 30.9589 28.1918 30.9104C26.2189 30.7925 22.5962 30.5999 19.9848 30.5999C17.3811 30.5999 13.7722 30.7913 11.7954 30.9093C10.977 30.9582 10.2506 30.389 10.1555 29.5747C9.98553 28.1179 9.84452 25.9398 10.3586 24.9999Z" stroke="white" stroke-width="1.5"/>
</svg>
