<svg width="40" height="40" viewBox="0 0 40 40" fill="none" xmlns="http://www.w3.org/2000/svg">
<path d="M11.2572 16.3494C11.0931 16.7456 11.2927 17.1953 11.7029 17.3538C12.1131 17.5123 12.5787 17.3196 12.7428 16.9234L11.2572 16.3494ZM27.2573 16.9234C27.4213 17.3196 27.8869 17.5123 28.2971 17.3538C28.7074 17.1953 28.9069 16.7456 28.7427 16.3494L27.2573 16.9234ZM30.4 17.9734V23.143H32V17.9734H30.4ZM25.9363 27.4545H25.0688V29H25.9363V27.4545ZM14.9312 27.4545H14.0637V29H14.9312V27.4545ZM9.6 23.143V17.9734H8V23.143H9.6ZM9.58149 17.9971C16.3909 16.1178 23.6091 16.1178 30.4186 17.9971L30.8581 16.5111C23.7613 14.5526 16.2387 14.5526 9.14194 16.5111L9.58149 17.9971ZM14.0637 27.4545C11.5985 27.4545 9.6 25.5241 9.6 23.143H8C8 26.3777 10.7148 29 14.0637 29V27.4545ZM14.6264 27.6293C14.6872 27.5216 14.8041 27.4545 14.9312 27.4545V29C15.3896 29 15.8115 28.7581 16.031 28.3693L14.6264 27.6293ZM16.031 28.3693C17.7446 25.335 22.2554 25.335 23.969 28.3693L25.3736 27.6293C23.0536 23.521 16.9464 23.521 14.6264 27.6293L16.031 28.3693ZM25.0688 27.4545C25.1958 27.4545 25.3128 27.5216 25.3736 27.6293L23.969 28.3693C24.1885 28.7581 24.6104 29 25.0688 29V27.4545ZM30.4 23.143C30.4 25.5241 28.4014 27.4545 25.9363 27.4545V29C29.2851 29 32 26.3777 32 23.143H30.4ZM32 17.9734C32 17.2944 31.5339 16.6976 30.8581 16.5111L30.4186 17.9971C30.4075 17.994 30.4 17.9844 30.4 17.9734H32ZM9.6 17.9734C9.6 17.9844 9.59245 17.994 9.58149 17.9971L9.14194 16.5111C8.46601 16.6976 8 17.2944 8 17.9734H9.6ZM12.0526 14.4287L11.2572 16.3494L12.7428 16.9234L13.5382 15.0027L12.0526 14.4287ZM26.4618 15.0027L27.2573 16.9234L28.7427 16.3494L27.9474 14.4287L26.4618 15.0027ZM15.7665 13.5455H24.2334V12H15.7665V13.5455ZM27.9474 14.4287C27.34 12.9619 25.8691 12 24.2334 12V13.5455C25.2149 13.5455 26.0974 14.1226 26.4618 15.0027L27.9474 14.4287ZM13.5382 15.0027C13.9026 14.1226 14.7851 13.5455 15.7665 13.5455V12C14.1309 12 12.66 12.9619 12.0526 14.4287L13.5382 15.0027Z" fill="#F5F5F5"/>
</svg>
