<svg width="39" height="39" viewBox="0 0 39 39" fill="none" xmlns="http://www.w3.org/2000/svg">
<g clip-path="url(#clip0_1489_4384)">
<path d="M5.18164 14.2784V14.2783C5.18164 9.2525 9.25575 5.17871 14.2817 5.17871C19.3068 5.17871 23.3813 9.25286 23.3813 14.2783C23.3815 19.3036 19.3057 23.378 14.2813 23.3782C9.25457 23.3782 5.18106 19.3039 5.18164 14.2784Z" stroke="#007DC5"/>
<path d="M34.6549 38.9952C33.5414 38.9954 32.4293 38.5718 31.5821 37.7246L23.0735 29.2162L24.4675 27.8215L22.5586 25.9129C16.9188 29.9373 9.13187 29.3254 4.18298 24.3758C1.48535 21.6786 0 18.0923 0 14.2776C0 10.4633 1.48535 6.87709 4.18298 4.1797C9.75 -1.38832 18.8103 -1.38778 24.3789 4.17985C29.328 9.12934 29.9399 16.9165 25.9155 22.5557L27.8247 24.4647L29.2184 23.0705L37.7274 31.5793C38.5484 32.3999 39 33.4913 39 34.6523C39 35.8128 38.548 36.904 37.7274 37.7247C36.8801 38.5714 35.7671 38.9952 34.6549 38.9952ZM25.1944 29.2161L32.6424 36.6637C33.7515 37.7729 35.5569 37.7729 36.6668 36.6637C37.204 36.1261 37.4998 35.4118 37.4998 34.6517C37.4998 33.8918 37.2038 33.1771 36.6668 32.6397L29.2189 25.1922L27.8251 26.5863L23.9247 22.6863L24.3359 22.1631C28.3266 17.0866 27.8888 9.81184 23.3178 5.24024C18.3344 0.257378 10.2263 0.257226 5.24344 5.24024C2.82933 7.65435 1.49982 10.8639 1.49982 14.2775C1.49982 17.6914 2.82933 20.9009 5.24344 23.315C9.81421 27.886 17.0887 28.3236 22.1653 24.3331L22.6887 23.9222L25.5281 26.7608L26.1457 26.1432L27.2063 27.2036L25.1944 29.2161Z" fill="#4D4D4D"/>
<path d="M34.6541 36.2978C34.3995 36.2978 33.91 36.2351 33.4905 35.816L31.5859 33.911L32.6467 32.8506L34.5511 34.7553C34.5612 34.7657 34.5936 34.7978 34.6538 34.7978C34.7135 34.7978 34.7459 34.7657 34.7566 34.755L35.817 35.8153C35.3978 36.2348 34.9084 36.2978 34.6541 36.2978Z" fill="#007DC5"/>
<path d="M8.13084 14.279H6.63086C6.63109 12.2385 7.42746 10.3184 8.87374 8.87163C10.3201 7.42551 12.2402 6.62891 14.2805 6.62891L14.2807 8.12888C12.641 8.12888 11.0976 8.76926 9.93436 9.93241C8.77159 11.0956 8.13084 12.6392 8.13084 14.279Z" fill="#4D4D4D"/>
</g>
<defs>
<clipPath id="clip0_1489_4384">
<rect width="39" height="39" fill="white"/>
</clipPath>
</defs>
</svg>
